<?xml version="1.0" encoding="UTF-8"?>
<svg version="1.1" xmlns="http://www.w3.org/2000/svg" width="1151" height="345">
<path d="M0 0 C7.84044271 6.72217444 13.70571792 15.88374397 14.85253906 26.32080078 C15.69910417 38.56404902 14.35008549 49.25283054 6.625 59.25 C6.22925781 59.80042969 5.83351563 60.35085937 5.42578125 60.91796875 C-1.53991399 69.95940126 -11.28591905 74.50899861 -22.375 76.25 C-32.95910983 77.27426869 -43.60343775 74.67429614 -52.09375 68.26171875 C-54.37850043 66.98917018 -54.37850043 66.98917018 -57.03125 67.7578125 C-61.58873794 69.79164474 -65.97494376 72.08506259 -70.375 74.4375 C-80.36531144 79.7189297 -90.43868702 84.80897703 -100.55853271 89.83535767 C-109.37403389 94.21650577 -118.14027556 98.674396 -126.79394531 103.36962891 C-130.03165415 105.10957575 -132.78180085 106.35170021 -136.375 107.25 C-136.375 110.55 -136.375 113.85 -136.375 117.25 C-135.64636749 117.53315063 -134.91773499 117.81630127 -134.16702271 118.10803223 C-131.6144582 119.15205898 -129.16882264 120.28964226 -126.70263672 121.52148438 C-125.80334442 121.96955444 -124.90405212 122.41762451 -123.97750854 122.87927246 C-122.53071213 123.60418884 -122.53071213 123.60418884 -121.0546875 124.34375 C-120.04141388 124.84990845 -119.02814026 125.35606689 -117.98416138 125.87756348 C-115.83351251 126.95254773 -113.68336825 128.02854202 -111.53369141 129.10546875 C-108.3116906 130.71910425 -105.08762328 132.32854887 -101.86328125 133.9375 C-91.39819694 139.16893192 -80.96081098 144.43723788 -70.6557312 149.97888184 C-65.66069201 152.64698672 -60.57718692 155.01322412 -55.375 157.25 C-54.776875 156.693125 -54.17875 156.13625 -53.5625 155.5625 C-43.20529616 148.04845016 -32.90810514 146.50872105 -20.375 147.25 C-9.93241926 148.97822514 0.118666 154.88244087 6.625 163.25 C14.49564081 175.7194217 16.86877919 188.13309402 13.9375 202.65625 C10.35794745 213.27558924 2.57910994 222.44314307 -7.2578125 227.828125 C-18.31012174 232.95639649 -31.28037939 234.57659732 -43.0078125 230.3515625 C-55.29149186 224.63539488 -63.24260507 216.78026107 -68.375 204.25 C-70.38989671 198.61458578 -70.62160619 193.16854861 -70.375 187.25 C-71.23134033 186.98445312 -72.08768066 186.71890625 -72.9699707 186.4453125 C-76.42886327 185.23109166 -79.58010941 183.76877214 -82.85546875 182.125 C-83.46109146 181.82214081 -84.06671417 181.51928162 -84.69068909 181.20724487 C-86.65009623 180.22568816 -88.60637622 179.23808167 -90.5625 178.25 C-91.92798927 177.56382428 -93.29354972 176.87779019 -94.65917969 176.19189453 C-101.85167053 172.5723584 -109.0139011 168.90242212 -116.125 165.125 C-119.20619955 163.49592807 -122.29005594 161.87196889 -125.375 160.25 C-126.4386377 159.68909668 -127.50227539 159.12819336 -128.59814453 158.55029297 C-132.11915309 156.70356893 -135.65188587 154.88108086 -139.1875 153.0625 C-140.86247559 152.17763916 -140.86247559 152.17763916 -142.57128906 151.27490234 C-143.62670898 150.73687988 -144.68212891 150.19885742 -145.76953125 149.64453125 C-146.70643799 149.15831299 -147.64334473 148.67209473 -148.60864258 148.17114258 C-153.48361656 146.54787218 -157.5287604 148.10127708 -162 150.25 C-171.3142111 154.69467618 -183.59060247 154.96973731 -193.375 151.625 C-205.92648378 146.1860237 -214.16120484 137.89752654 -219.375 125.25 C-223.23030816 115.19005528 -222.40649714 103.11143168 -218.375 93.25 C-216.59938982 90.05688589 -214.58089454 87.15777007 -212.375 84.25 C-211.776875 83.363125 -211.17875 82.47625 -210.5625 81.5625 C-203.37200766 73.96112238 -192.86273118 68.76639525 -182.4296875 68.046875 C-174.51809564 67.9302422 -165.56942255 67.84160375 -159.1315918 73.07299805 C-156.15609342 75.42869034 -154.12092029 76.4985004 -150.375 77.25 C-143.34852382 75.72489906 -136.99148361 71.45193086 -130.8125 67.9375 C-128.97960727 66.93857285 -127.14413334 65.94436775 -125.30615234 64.95483398 C-121.66157972 62.98787475 -118.02915472 61.00099425 -114.40478516 58.99707031 C-107.86642855 55.40027186 -101.20326689 52.08995445 -94.5 48.8125 C-87.76201189 45.49157557 -81.12791327 42.06110357 -74.58544922 38.36694336 C-72.375 37.25 -72.375 37.25 -70.375 37.25 C-70.42140625 36.67894531 -70.4678125 36.10789063 -70.515625 35.51953125 C-71.0107645 24.396576 -67.62201119 13.75595745 -60.375 5.25 C-43.771349 -12.30971535 -19.53602362 -14.60828035 0 0 Z " fill="#1B30C3" transform="translate(321.375,74.75)"/>
<path d="M0 0 C75.97142857 0 75.97142857 0 90.46484375 13.19140625 C96.84213909 20.70460662 98.76324458 29.41704031 98 39 C95.86828081 49.80311927 89.75049105 57.15146094 80.8359375 63.26953125 C77.03720555 65.58749028 73.1629978 67.43759095 69 69 C69.81082031 69.21914062 70.62164062 69.43828125 71.45703125 69.6640625 C84.10210419 73.28535231 95.15670436 78.13529295 102.6015625 89.4296875 C107.03877509 97.78354585 107.33242648 106.6534423 105.40625 115.828125 C102.36347038 124.78742054 95.71061327 131.78158771 87.5625 136.375 C85.72261809 137.27965108 83.86857733 138.15621223 82 139 C81.19820313 139.37769531 80.39640625 139.75539062 79.5703125 140.14453125 C54.77594956 150.99714585 25.71188128 146 0 146 C0 97.82 0 49.64 0 0 Z M35.9375 9.375 C35.14794922 9.50132813 34.35839844 9.62765625 33.54492188 9.7578125 C32.77599609 9.88671875 32.00707031 10.015625 31.21484375 10.1484375 C30.52511475 10.26364746 29.83538574 10.37885742 29.12475586 10.49755859 C26.46442647 11.07139608 26.46442647 11.07139608 22 13 C22 30.49 22 47.98 22 66 C26.2075 66.0825 30.415 66.165 34.75 66.25 C36.7005127 66.30462402 36.7005127 66.30462402 38.69042969 66.36035156 C49.47970565 66.4614297 59.41865385 64.66732644 67.3828125 56.91796875 C69.96638548 53.85387616 71.62006852 50.74965674 73 47 C73.23589844 46.36191406 73.47179687 45.72382812 73.71484375 45.06640625 C75.98681477 37.6862128 75.04447319 30.71656482 71.875 23.75 C67.26963996 15.38970152 60.01135338 10.89696424 51 8 C45.88835433 7.59682795 40.96199305 8.51766238 35.9375 9.375 Z M22 74 C22 94.46 22 114.92 22 136 C38.12147012 138.30306716 53.63783525 140.24541238 68.0625 131.1875 C75.42152084 125.63012268 79.25040754 120.13836721 81 111 C81.87523664 103.12287021 79.71460443 96.19529776 75.41015625 89.54296875 C68.27387791 80.68674172 58.80850783 76.70212696 48 74 C39.42 74 30.84 74 22 74 Z " fill="#1B30C0" transform="translate(427,49)"/>
<path d="M0 0 C6.64761182 2.989267 11.98539282 0.69307437 18.625 -1.375 C21.9750594 -2.22893671 23.64916913 -2.59342483 26.8125 -1.1875 C28.6307199 1.53982985 29.89080832 3.50146723 29.69140625 6.83984375 C28.41636534 9.70160223 26.67386425 10.26144976 23.875 11.5625 C22.97910156 11.99046875 22.08320312 12.4184375 21.16015625 12.859375 C18.8125 13.8125 18.8125 13.8125 16.8125 13.8125 C17.286875 14.864375 17.76125 15.91625 18.25 17 C22.2800126 25.9361149 21.65787722 36.03642611 18.8515625 45.2421875 C15.45044758 53.65547178 8.52013323 60.2558398 0.375 64.0625 C-5.91361477 66.59687485 -11.3250579 67.8190107 -18.10083008 68.04736328 C-25.15126287 68.30205346 -30.04534579 68.54791355 -35.1875 73.8125 C-37.0667982 76.31823094 -37.21143769 77.30980861 -37.0625 80.4375 C-36.40373798 82.87592228 -36.40373798 82.87592228 -34.5625 84.0625 C-28.6013179 85.94497856 -22.48823528 85.94904133 -16.29052734 86.10253906 C-6.99770065 86.33800606 2.23240378 86.7125437 11.4375 88.0625 C12.17516602 88.15966309 12.91283203 88.25682617 13.67285156 88.35693359 C20.00392265 89.39263489 25.40286955 92.1696795 29.75 96.9375 C32.85776565 102.42179232 32.57872694 108.65126655 31.12890625 114.6328125 C27.21135398 126.30419229 19.08244522 136.03006606 8.1484375 141.8671875 C-2.42542687 147.10451129 -11.69585134 149.19334495 -23.5 149.125 C-24.51529785 149.11936035 -25.5305957 149.1137207 -26.57666016 149.10791016 C-37.97757856 148.92322808 -47.24959466 147.30819556 -56.1875 139.8125 C-61.37255996 134.36153953 -62.72735964 129.09871822 -62.55859375 121.72265625 C-61.53104599 113.66451859 -57.2184019 108.1760315 -51.0546875 103.1875 C-49.46494516 102.01681108 -47.83020273 100.90763515 -46.1875 99.8125 C-47.13625 99.07 -48.085 98.3275 -49.0625 97.5625 C-52.30655512 95.02367425 -53.85973051 92.63729362 -54.59375 88.55078125 C-54.8721244 81.34784359 -52.82345971 77.23405121 -48.1875 71.8125 C-45.6093211 69.04488501 -42.95499775 66.39034689 -40.1875 63.8125 C-40.70699219 63.4 -41.22648438 62.9875 -41.76171875 62.5625 C-49.44808889 56.19744672 -54.01433086 49.86590778 -55.1875 39.8125 C-56.01520605 29.86524698 -54.48648449 20.02628573 -48.7578125 11.65625 C-37.26799048 -1.8342873 -16.30952164 -7.54123649 0 0 Z M-31.0625 10.5625 C-37.39070868 20.2409368 -38.79991681 31.14099857 -36.69140625 42.48046875 C-34.68056714 49.08101972 -31.50050525 54.0083559 -26.0625 58.25 C-20.83036469 60.88891541 -14.58566738 60.92644805 -9.06640625 59.1171875 C-3.85587745 56.45029319 -1.28414769 52.46504133 0.89453125 47.1953125 C3.43252896 37.84252095 3.36572375 25.49273923 -0.99609375 16.75390625 C-4.59056292 10.89668927 -8.55845574 7.05293245 -15.1875 4.8125 C-21.51436189 4.8125 -26.43685862 6.13797347 -31.0625 10.5625 Z M-40.17578125 106.6015625 C-41.33107364 108.69122715 -41.33107364 108.69122715 -42.1875 110.8125 C-42.826875 111.946875 -43.46625 113.08125 -44.125 114.25 C-45.67798047 119.45705216 -45.60421814 123.88875499 -43.20703125 128.8359375 C-39.74338257 134.14910732 -35.34508066 136.50200715 -29.1875 137.8125 C-19.52679399 138.57573509 -9.13617858 138.89955762 -0.1875 134.8125 C0.56402344 134.4721875 1.31554687 134.131875 2.08984375 133.78125 C11.02834087 129.25852325 19.35530928 122.48915944 22.8125 112.8125 C22.97490318 110.132382 22.97490318 110.132382 22.8125 107.8125 C20.85623287 107.32496634 18.89733537 106.84798567 16.9375 106.375 C15.84695313 106.10816406 14.75640625 105.84132813 13.6328125 105.56640625 C3.90939248 103.64757183 -6.1080374 103.31162605 -15.99316406 102.87036133 C-17.63073248 102.78972597 -19.26759155 102.69320859 -20.90332031 102.58129883 C-31.65520745 101.32313966 -31.65520745 101.32313966 -40.17578125 106.6015625 Z " fill="#1A2FBF" transform="translate(887.1875,95.1875)"/>
<path d="M0 0 C2.58286893 1.13292843 4.03130616 0.73612126 6.75390625 0.1015625 C7.63046875 -0.09566406 8.50703125 -0.29289062 9.41015625 -0.49609375 C11.54221268 -1.04555891 13.65179511 -1.68118157 15.75390625 -2.3359375 C18.99844875 -3.16297775 20.77511018 -3.10792116 23.94140625 -2.1484375 C24.93140625 0.8215625 25.92140625 3.7915625 26.94140625 6.8515625 C25.15258889 7.85665051 23.36025929 8.85548986 21.56640625 9.8515625 C20.56867188 10.4084375 19.5709375 10.9653125 18.54296875 11.5390625 C15.94140625 12.8515625 15.94140625 12.8515625 13.94140625 12.8515625 C14.41578125 13.8828125 14.89015625 14.9140625 15.37890625 15.9765625 C19.44737982 25.55282812 18.79718134 36.61613235 15.01171875 46.20703125 C9.9888982 56.26999242 2.25001927 61.27923175 -8.140625 64.94140625 C-9.58501953 65.39193359 -9.58501953 65.39193359 -11.05859375 65.8515625 C-11.68507813 66.05394531 -12.3115625 66.25632812 -12.95703125 66.46484375 C-15.55073359 66.94212355 -18.1141004 66.97831733 -20.74560547 67.0402832 C-27.84787418 67.24504652 -32.8980716 67.56817077 -38.05859375 72.8515625 C-39.93789195 75.35729344 -40.08253144 76.34887111 -39.93359375 79.4765625 C-39.27483173 81.91498478 -39.27483173 81.91498478 -37.43359375 83.1015625 C-30.37661452 85.33008226 -22.88351826 85.08132663 -15.55859375 85.2890625 C16.63267767 86.40644177 16.63267767 86.40644177 24.625 93.3046875 C28.70661604 97.88349756 29.31193736 102.37996796 29.21484375 108.29296875 C28.25759674 117.25006578 23.93001496 124.34220521 17.94140625 130.8515625 C17.39097656 131.45613281 16.84054687 132.06070313 16.2734375 132.68359375 C12.04951281 136.81427507 7.22212274 139.49842509 2.00390625 142.1640625 C1.347854 142.50187744 0.69180176 142.83969238 0.01586914 143.18774414 C-8.58808475 147.3861166 -16.87892104 148.21902132 -26.37109375 148.1640625 C-27.3863916 148.15842285 -28.40168945 148.1527832 -29.44775391 148.14697266 C-41.57479846 147.95052815 -51.79964529 146.05828831 -60.6875 137.234375 C-65.21225618 132.05217561 -65.40393377 127.62139907 -65.33984375 120.99609375 C-64.69592091 113.79667864 -61.57836185 108.4727637 -56.05859375 103.8515625 C-53.75997558 102.12281008 -51.43143488 100.47998288 -49.05859375 98.8515625 C-49.55230469 98.44164062 -50.04601562 98.03171875 -50.5546875 97.609375 C-51.19535156 97.07054687 -51.83601562 96.53171875 -52.49609375 95.9765625 C-53.13417969 95.44289063 -53.77226563 94.90921875 -54.4296875 94.359375 C-56.50006399 92.44291139 -57.00182843 91.33325677 -57.33203125 88.53125 C-57.58663836 81.50017668 -56.66037784 77.21848884 -52.05859375 71.8515625 C-49.96774843 69.67569204 -47.84484086 67.56819106 -45.6328125 65.515625 C-43.82951902 63.99119599 -43.82951902 63.99119599 -44.05859375 61.8515625 C-45.25201827 60.80916689 -46.48995579 59.81746525 -47.74609375 58.8515625 C-53.6256098 53.8685684 -56.91883707 47.46145305 -58.05859375 39.8515625 C-58.86919456 27.95755447 -57.29116236 18.75245952 -50.06640625 9.109375 C-38.41612457 -3.99152541 -15.54937469 -8.67460372 0 0 Z M-33.87109375 9.3515625 C-40.14088279 18.25553375 -41.18032358 28.23478621 -40.05859375 38.8515625 C-38.51805544 45.58214964 -36.07545417 51.0736002 -31.05859375 55.8515625 C-25.74792387 59.06009222 -21.64696495 60.29116593 -15.55859375 59.1640625 C-10.75385024 57.94494848 -7.5595655 56.32434986 -4.90625 51.953125 C-0.18425418 42.91243549 0.38484757 32.1430639 -1.58984375 22.16796875 C-4.15444949 15.01773644 -8.69997654 8.99205743 -15.05859375 4.8515625 C-22.08195552 2.64050416 -28.4752548 4.55526121 -33.87109375 9.3515625 Z M-43.578125 106.171875 C-45.0200261 108.52681212 -45.0200261 108.52681212 -46.05859375 110.8515625 C-46.55359375 111.8415625 -47.04859375 112.8315625 -47.55859375 113.8515625 C-48.49171798 119.45030791 -47.9372782 124.06039805 -45.43359375 129.1640625 C-41.31334822 133.8264456 -36.27980213 136.51806986 -30.01904297 137.01269531 C-14.13765328 137.32204968 -0.93307275 135.96524697 11.375 124.60546875 C16.36633018 119.17453518 20.14561077 114.45818096 19.94140625 106.8515625 C17.98513912 106.36402884 16.02624162 105.88704817 14.06640625 105.4140625 C12.97585938 105.14722656 11.8853125 104.88039063 10.76171875 104.60546875 C6.15210014 103.69579964 1.62298449 103.21673735 -3.05859375 102.8515625 C-3.69889526 102.80109772 -4.33919678 102.75063293 -4.99890137 102.69863892 C-9.5998862 102.34636318 -14.20005823 102.07240687 -18.80932617 101.85449219 C-20.44022625 101.76887034 -22.07028801 101.6655293 -23.69897461 101.54492188 C-34.81735567 100.34277111 -34.81735567 100.34277111 -43.578125 106.171875 Z " fill="#1B2FBF" transform="translate(782.05859375,96.1484375)"/>
<path d="M0 0 C10.91238604 9.21908476 15.3757955 21.67987516 16.75 35.5 C17.64301057 50.96231258 15.20158063 66.88100407 4.8671875 79.01171875 C-5.60386212 90.16185318 -18.20478663 96.0553333 -33.51171875 97.28125 C-47.33289033 97.64616542 -58.59175648 94.50274037 -69.03125 85.1875 C-79.34415508 74.33181045 -82.39636397 61.17440262 -82.3125 46.6875 C-82.30686035 45.67075195 -82.3012207 44.65400391 -82.29541016 43.60644531 C-82.06106439 29.12341299 -78.08984199 16.62767668 -68.03515625 5.84375 C-48.95203616 -11.44460448 -21.46713637 -13.54235238 0 0 Z M-52.24609375 12.44140625 C-61.79372305 26.36946235 -63.11098975 44.34672285 -60.3125 60.609375 C-58.14077848 71.00655172 -54.04048111 79.97301259 -45 86 C-38.66274341 89.1258915 -32.8645683 89.65342592 -26 88 C-18.52100152 85.26558356 -14.00618568 79.16697127 -10.3125 72.375 C-3.0991347 56.80809231 -2.21450717 36.21796785 -8 20 C-10.89400165 13.10951988 -15.24882731 6.59501801 -21.9453125 2.9375 C-23.94847458 2.12052409 -25.90356326 1.52915841 -28 1 C-28.63808594 0.80019531 -29.27617188 0.60039063 -29.93359375 0.39453125 C-39.10538518 -1.76462287 -46.78868065 5.9035356 -52.24609375 12.44140625 Z " fill="#1A30C1" transform="translate(689,101)"/>
<path d="M0 0 C6.93 0 13.86 0 21 0 C21 48.18 21 96.36 21 146 C14.07 146 7.14 146 0 146 C0 97.82 0 49.64 0 0 Z " fill="#1B30C3" transform="translate(947,49)"/>
<path d="M0 0 C6.27 0 12.54 0 19 0 C19 49.83 19 99.66 19 151 C12.73 151 6.46 151 0 151 C0 101.17 0 51.34 0 0 Z " fill="#1C31BF" transform="translate(566,44)"/>
<path d="M0 0 C0 6.93 0 13.86 0 21 C8.58 21 17.16 21 26 21 C26 23.97 26 26.94 26 30 C17.42 30 8.84 30 0 30 C0.06293235 39.95339479 0.13835425 49.90648037 0.23571491 59.85959911 C0.28042607 64.48133282 0.31968055 69.10297822 0.34643555 73.72485352 C0.3724611 78.18595208 0.41285817 82.64671098 0.46318626 87.10759926 C0.47986005 88.80877772 0.49137115 90.51001494 0.49761391 92.21126366 C0.50724957 94.59587514 0.53530134 96.97961666 0.56762695 99.36401367 C0.56619186 100.06604416 0.56475677 100.76807465 0.5632782 101.49137878 C0.64596728 105.80954196 1.36251659 108.55826359 4 112 C10.32127057 115.16063529 19.53535781 112.98912067 26 111 C26 113.31 26 115.62 26 118 C24.10667466 118.81832722 22.21022267 119.62942268 20.3125 120.4375 C19.25675781 120.88996094 18.20101563 121.34242188 17.11328125 121.80859375 C9.50076863 124.72178867 0.37390496 125.44105262 -7.4375 122.8125 C-13.35801222 119.80030957 -16.50043935 116.12392359 -19 110 C-19.95841571 105.43721082 -20.12136331 101.08980812 -20.11352539 96.43408203 C-20.11367142 95.70168808 -20.11381744 94.96929413 -20.1139679 94.21470642 C-20.1132755 91.81237751 -20.10551482 89.41012774 -20.09765625 87.0078125 C-20.09578968 85.33486982 -20.0943669 83.66192658 -20.09336853 81.98898315 C-20.08956219 77.59959385 -20.07974808 73.21023797 -20.06866455 68.82086182 C-20.05840985 64.33630831 -20.05386223 59.85174937 -20.04882812 55.3671875 C-20.03812403 46.57810971 -20.02107035 37.78905902 -20 29 C-20.67401855 28.94013916 -21.34803711 28.88027832 -22.04248047 28.81860352 C-22.93338379 28.73537842 -23.82428711 28.65215332 -24.7421875 28.56640625 C-25.62245605 28.48592041 -26.50272461 28.40543457 -27.40966797 28.32250977 C-30.7719895 27.90388331 -33.78339122 27.04889417 -37 26 C-37.33 24.35 -37.66 22.7 -38 21 C-32.06 21 -26.12 21 -20 21 C-20 18.36 -20 15.72 -20 13 C-17.87136452 10.74524595 -16.26877864 9.34601056 -13.75 7.6875 C-13.16347656 7.27177734 -12.57695313 6.85605469 -11.97265625 6.42773438 C-10.32860448 5.26581464 -8.66480366 4.13198606 -7 3 C-6.26265625 2.40832031 -5.5253125 1.81664063 -4.765625 1.20703125 C-3 0 -3 0 0 0 Z " fill="#1B30C0" transform="translate(1027,74)"/>
<path d="M0 0 C4.21749219 -0.07419134 8.43463811 -0.1286204 12.65258789 -0.16479492 C14.08722552 -0.17987589 15.52181708 -0.2003438 16.95629883 -0.22631836 C19.01915859 -0.26273437 21.08140858 -0.27973243 23.14453125 -0.29296875 C25.00621948 -0.31653442 25.00621948 -0.31653442 26.90551758 -0.34057617 C30 0 30 0 31.9440918 1.38549805 C33 3 33 3 32.75 5.125 C32 7 32 7 31 8 C28.62458949 8.08838648 26.2776642 8.11537523 23.90234375 8.09765625 C22.60546631 8.09515869 21.30858887 8.09266113 19.97241211 8.09008789 C18.31089111 8.08098389 16.64937012 8.07187988 14.9375 8.0625 C9.678125 8.041875 4.41875 8.02125 -1 8 C-1 28.13 -1 48.26 -1 69 C-1.66 69 -2.32 69 -3 69 C-3.06953428 60.98532036 -3.1228284 52.97076693 -3.15543652 44.95586014 C-3.17108742 41.23413686 -3.19231478 37.51262007 -3.22631836 33.79101562 C-3.25893295 30.19892092 -3.27685734 26.60702475 -3.28463173 23.0147934 C-3.29017152 21.64485296 -3.30098952 20.27492329 -3.31719017 18.90506744 C-3.33898955 16.98532217 -3.34022562 15.06537682 -3.34057617 13.14550781 C-3.34723801 12.05296692 -3.35389984 10.96042603 -3.36076355 9.83477783 C-2.95139407 6.61806837 -2.36433331 5.21004737 0 3 C1.32 3 2.64 3 4 3 C2.68 2.67 1.36 2.34 0 2 C0 1.34 0 0.68 0 0 Z " fill="#1F31A9" transform="translate(450,115)"/>
<path d="M0 0 C2.59288307 4.73482996 3.63824909 9.80058743 5 15 C6.32 11.04 7.64 7.08 9 3 C10.65 3 12.3 3 14 3 C15.32 6.96 16.64 10.92 18 15 C19.32 10.38 20.64 5.76 22 1 C23.32 1 24.64 1 26 1 C22.38297872 20.61702128 22.38297872 20.61702128 20 23 C18.35 23 16.7 23 15 23 C14.01 19.37 13.02 15.74 12 12 C10.33167423 14.50248865 9.37618326 16.41149187 8.375 19.1875 C8.11460937 19.90292969 7.85421875 20.61835938 7.5859375 21.35546875 C7.39257812 21.89816406 7.19921875 22.44085938 7 23 C5.35 22.67 3.7 22.34 2 22 C1.16193384 19.06377536 0.32937556 16.12617933 -0.5 13.1875 C-0.73847656 12.35412109 -0.97695313 11.52074219 -1.22265625 10.66210938 C-1.56103516 9.45844727 -1.56103516 9.45844727 -1.90625 8.23046875 C-2.11572266 7.49207764 -2.32519531 6.75368652 -2.54101562 5.99291992 C-3 4 -3 4 -3 1 C-2.01 0.67 -1.02 0.34 0 0 Z " fill="#1B30AB" transform="translate(835,292)"/>
<path d="M0 0 C0.66 0 1.32 0 2 0 C2.33 48.18 2.66 96.36 3 146 C2.01 146 1.02 146 0 146 C0 97.82 0 49.64 0 0 Z " fill="#1F329F" transform="translate(947,49)"/>
<path d="M0 0 C2.31 0 4.62 0 7 0 C6.67 0.66 6.34 1.32 6 2 C8.5217982 2.90064221 9.57303018 3.19407719 12.0625 2.0625 C12.701875 1.711875 13.34125 1.36125 14 1 C14.99 1 15.98 1 17 1 C17.33 2.98 17.66 4.96 18 7 C18.66 7 19.32 7 20 7 C20.00879936 8.48005272 20.00879936 8.48005272 20.01777649 9.99000549 C20.07506907 19.30330291 20.14786481 28.6163683 20.23571491 37.92942905 C20.2803813 42.71701425 20.31964566 47.50451508 20.34643555 52.29223633 C20.37250574 56.91543284 20.41293444 61.53830407 20.46318626 66.16129875 C20.47982986 67.92222983 20.49135973 69.68321715 20.49761391 71.44421577 C20.50728241 73.91701221 20.53537362 76.38898112 20.56762695 78.86157227 C20.56547432 79.94591049 20.56547432 79.94591049 20.5632782 81.05215454 C20.65666898 86.13767633 21.79481085 89.51935369 24 94 C24.391875 94.804375 24.78375 95.60875 25.1875 96.4375 C25.455625 96.953125 25.72375 97.46875 26 98 C23 97 23 97 21.8671875 95.36328125 C21.53976562 94.68652344 21.21234375 94.00976562 20.875 93.3125 C20.54242187 92.64863281 20.20984375 91.98476562 19.8671875 91.30078125 C17.91795352 86.12916497 17.877263 80.90577622 17.88647461 75.43408203 C17.88632858 74.70168808 17.88618256 73.96929413 17.8860321 73.21470642 C17.8867245 70.81237751 17.89448518 68.41012774 17.90234375 66.0078125 C17.90421032 64.33486982 17.9056331 62.66192658 17.90663147 60.98898315 C17.91043781 56.59959385 17.92025192 52.21023797 17.93133545 47.82086182 C17.94159015 43.33630831 17.94613777 38.85174937 17.95117188 34.3671875 C17.96187597 25.57810971 17.97892965 16.78905902 18 8 C17.32598145 7.94013916 16.65196289 7.88027832 15.95751953 7.81860352 C15.06661621 7.73537842 14.17571289 7.65215332 13.2578125 7.56640625 C12.37754395 7.48592041 11.49727539 7.40543457 10.59033203 7.32250977 C7.2280105 6.90388331 4.21660878 6.04889417 1 5 C0.67 3.35 0.34 1.7 0 0 Z " fill="#1B2DA1" transform="translate(989,95)"/>
<path d="M0 0 C0.86625 0.05542969 1.7325 0.11085938 2.625 0.16796875 C5 0.8125 5 0.8125 6.8359375 2.6328125 C8.55243009 5.84691608 7.65759558 8.32724341 7 11.8125 C7.33 12.1425 7.66 12.4725 8 12.8125 C8.3125 16.1875 8.3125 16.1875 8 19.8125 C5.68799977 22.24647626 4.34492237 22.7789907 0.984375 23.10546875 C-0.08296875 23.07066406 -1.1503125 23.03585937 -2.25 23 C-5.09625 22.9071875 -5.09625 22.9071875 -8 22.8125 C-8 15.5525 -8 8.2925 -8 0.8125 C-4.92646102 -0.21201299 -3.18558914 -0.25124438 0 0 Z M-4 3.8125 C-4 5.7925 -4 7.7725 -4 9.8125 C-0.535 9.3175 -0.535 9.3175 3 8.8125 C3 7.4925 3 6.1725 3 4.8125 C1.87465895 3.45631501 1.87465895 3.45631501 -1.0625 3.75 C-2.031875 3.770625 -3.00125 3.79125 -4 3.8125 Z M-4 12.8125 C-4 15.1225 -4 17.4325 -4 19.8125 C0.14093698 20.02220559 0.14093698 20.02220559 4 18.8125 C3.62095792 15.52174004 3.62095792 15.52174004 2 12.8125 C0.00041636 12.77169217 -2.00045254 12.76995644 -4 12.8125 Z " fill="#182CAB" transform="translate(691,292.1875)"/>
<path d="M0 0 C2.1875 2.3125 2.1875 2.3125 3 5 C2.6875 7.3125 2.6875 7.3125 2 9 C1.34 9 0.68 9 0 9 C0 9.66 0 10.32 0 11 C0.99 11.33 1.98 11.66 3 12 C3.25 15.3125 3.25 15.3125 3 19 C0.6928617 21.44024243 -0.65510966 21.96649381 -4.015625 22.29296875 C-5.08296875 22.25816406 -6.1503125 22.22335937 -7.25 22.1875 C-10.09625 22.0946875 -10.09625 22.0946875 -13 22 C-13 14.74 -13 7.48 -13 0 C-8.58655839 -1.4711472 -4.49800673 -1.11127225 0 0 Z M-9 3 C-9 4.98 -9 6.96 -9 9 C-5.535 8.505 -5.535 8.505 -2 8 C-1.67 7.01 -1.34 6.02 -1 5 C-2.89755144 2.65026182 -2.89755144 2.65026182 -6.125 2.875 C-7.07375 2.91625 -8.0225 2.9575 -9 3 Z M-9 12 C-9 14.31 -9 16.62 -9 19 C-6.08347826 19.16681109 -6.08347826 19.16681109 -3 19 C-2.34 18.34 -1.68 17.68 -1 17 C-1.40528901 14.21762345 -1.40528901 14.21762345 -3 12 C-4.99958364 11.95919217 -7.00045254 11.95745644 -9 12 Z " fill="#192EB0" transform="translate(954,293)"/>
<path d="M0 0 C7.29506317 0.87522136 14.59238111 0.71260244 21.92578125 0.66796875 C23.37369636 0.66294127 24.82161317 0.65838058 26.26953125 0.65429688 C29.77998384 0.6433958 33.29037132 0.62620077 36.80078125 0.60546875 C36.80078125 1.26546875 36.80078125 1.92546875 36.80078125 2.60546875 C35.484729 2.54262695 35.484729 2.54262695 34.14208984 2.47851562 C30.86529161 2.34160326 27.59155532 2.24164578 24.31298828 2.16601562 C22.89843622 2.1259415 21.48421236 2.0714598 20.07080078 2.00195312 C11.85913592 1.33795077 11.85913592 1.33795077 4.55151367 4.32299805 C3.00305741 6.36421911 1.85891762 8.277682 0.80078125 10.60546875 C0.08921875 11.99765625 0.08921875 11.99765625 -0.63671875 13.41796875 C-1.48396043 18.21900493 -0.8321115 22.79890491 -0.19921875 27.60546875 C-0.85921875 27.60546875 -1.51921875 27.60546875 -2.19921875 27.60546875 C-2.30878906 26.90679687 -2.41835938 26.208125 -2.53125 25.48828125 C-2.68980469 24.57820313 -2.84835937 23.668125 -3.01171875 22.73046875 C-3.16253906 21.82554687 -3.31335938 20.920625 -3.46875 19.98828125 C-4.02973176 17.26134397 -4.02973176 17.26134397 -7.19921875 15.60546875 C-6.55984375 15.17234375 -5.92046875 14.73921875 -5.26171875 14.29296875 C-2.93175872 12.69307698 -2.93175872 12.69307698 -2.19921875 9.60546875 C-3.29234375 9.60546875 -4.38546875 9.60546875 -5.51171875 9.60546875 C-12.19921875 9.60546875 -12.19921875 9.60546875 -15.19921875 8.60546875 C-6.19794081 -0.92529613 -6.19794081 -0.92529613 0 0 Z " fill="#192FC0" transform="translate(736.19921875,196.39453125)"/>
<path d="M0 0 C0.89992676 0.01861084 1.79985352 0.03722168 2.72705078 0.05639648 C3.4126709 0.08032471 4.09829102 0.10425293 4.8046875 0.12890625 C4.89197632 3.37873625 4.94517408 6.62826375 4.9921875 9.87890625 C5.02989258 11.25949219 5.02989258 11.25949219 5.06835938 12.66796875 C5.08286133 14.00214844 5.08286133 14.00214844 5.09765625 15.36328125 C5.12122192 16.58869629 5.12122192 16.58869629 5.14526367 17.83886719 C4.72183495 20.68600798 3.76137815 22.04742064 1.8046875 24.12890625 C-0.45703125 24.51953125 -0.45703125 24.51953125 -2.8828125 24.37890625 C-3.69105469 24.3428125 -4.49929688 24.30671875 -5.33203125 24.26953125 C-6.25435547 24.19992187 -6.25435547 24.19992187 -7.1953125 24.12890625 C-7.5253125 22.80890625 -7.8553125 21.48890625 -8.1953125 20.12890625 C-5.2253125 20.12890625 -2.2553125 20.12890625 0.8046875 20.12890625 C0.4746875 19.13890625 0.1446875 18.14890625 -0.1953125 17.12890625 C-1.1028125 17.23203125 -2.0103125 17.33515625 -2.9453125 17.44140625 C-6.1953125 17.12890625 -6.1953125 17.12890625 -8.5703125 15.06640625 C-10.62314728 11.3555126 -10.8677349 9.31286785 -10.1953125 5.12890625 C-7.3216533 0.62684016 -5.10814093 -0.13704768 0 0 Z M-3.1953125 3.12890625 C-4.1853125 3.78890625 -5.1753125 4.44890625 -6.1953125 5.12890625 C-6.6067564 8.35188346 -6.73200816 10.29702797 -4.9453125 13.06640625 C-4.3678125 13.41703125 -3.7903125 13.76765625 -3.1953125 14.12890625 C-1.8753125 13.79890625 -0.5553125 13.46890625 0.8046875 13.12890625 C0.8046875 10.15890625 0.8046875 7.18890625 0.8046875 4.12890625 C-0.5153125 3.79890625 -1.8353125 3.46890625 -3.1953125 3.12890625 Z " fill="#192BA2" transform="translate(998.1953125,297.87109375)"/>
<path d="M0 0 C0.89992676 0.01861084 1.79985352 0.03722168 2.72705078 0.05639648 C3.4126709 0.08032471 4.09829102 0.10425293 4.8046875 0.12890625 C4.89172573 3.56624688 4.94509022 7.00330462 4.9921875 10.44140625 C5.02989258 11.90610352 5.02989258 11.90610352 5.06835938 13.40039062 C5.08286133 14.80708008 5.08286133 14.80708008 5.09765625 16.2421875 C5.12122192 17.53829956 5.12122192 17.53829956 5.14526367 18.8605957 C4.73186617 21.61391199 4.0103895 22.48060186 1.8046875 24.12890625 C-0.45703125 24.421875 -0.45703125 24.421875 -2.8828125 24.31640625 C-3.69105469 24.28933594 -4.49929688 24.26226562 -5.33203125 24.234375 C-5.94691406 24.19957031 -6.56179688 24.16476562 -7.1953125 24.12890625 C-7.1953125 22.80890625 -7.1953125 21.48890625 -7.1953125 20.12890625 C-4.8853125 20.12890625 -2.5753125 20.12890625 -0.1953125 20.12890625 C-0.1953125 19.13890625 -0.1953125 18.14890625 -0.1953125 17.12890625 C-1.2884375 17.04640625 -2.3815625 16.96390625 -3.5078125 16.87890625 C-7.1953125 16.12890625 -7.1953125 16.12890625 -9.1328125 14.50390625 C-10.6544014 11.10270754 -10.71281042 8.81607894 -10.1953125 5.12890625 C-7.3216533 0.62684016 -5.10814093 -0.13704768 0 0 Z M-5.0078125 4.25390625 C-6.62351768 6.80501969 -6.7875254 8.16784175 -6.1953125 11.12890625 C-3.78672536 12.99135005 -3.78672536 12.99135005 -1.1953125 14.12890625 C-0.2053125 13.46890625 0.7846875 12.80890625 1.8046875 12.12890625 C2.16766686 10.15143503 2.16766686 10.15143503 1.9921875 8.00390625 C1.9303125 6.72515625 1.8684375 5.44640625 1.8046875 4.12890625 C-1.72099746 2.98731124 -1.72099746 2.98731124 -5.0078125 4.25390625 Z " fill="#1C31AA" transform="translate(1016.1953125,297.87109375)"/>
<path d="M0 0 C0.89992676 0.01861084 1.79985352 0.03722168 2.72705078 0.05639648 C3.4126709 0.08032471 4.09829102 0.10425293 4.8046875 0.12890625 C4.89172573 3.56624688 4.94509022 7.00330462 4.9921875 10.44140625 C5.02989258 11.90610352 5.02989258 11.90610352 5.06835938 13.40039062 C5.08286133 14.80708008 5.08286133 14.80708008 5.09765625 16.2421875 C5.12122192 17.53829956 5.12122192 17.53829956 5.14526367 18.8605957 C4.73186617 21.61391199 4.0103895 22.48060186 1.8046875 24.12890625 C-0.45703125 24.421875 -0.45703125 24.421875 -2.8828125 24.31640625 C-3.69105469 24.28933594 -4.49929688 24.26226562 -5.33203125 24.234375 C-5.94691406 24.19957031 -6.56179688 24.16476562 -7.1953125 24.12890625 C-7.1953125 22.80890625 -7.1953125 21.48890625 -7.1953125 20.12890625 C-4.8853125 20.12890625 -2.5753125 20.12890625 -0.1953125 20.12890625 C0.4646875 18.80890625 1.1246875 17.48890625 1.8046875 16.12890625 C0.7528125 16.39703125 -0.2990625 16.66515625 -1.3828125 16.94140625 C-5.1953125 17.12890625 -5.1953125 17.12890625 -8.1328125 15.12890625 C-10.71265278 11.3764113 -10.99317238 9.59692156 -10.1953125 5.12890625 C-7.3216533 0.62684016 -5.10814093 -0.13704768 0 0 Z M-5.0078125 4.25390625 C-6.62351768 6.80501969 -6.7875254 8.16784175 -6.1953125 11.12890625 C-3.78672536 12.99135005 -3.78672536 12.99135005 -1.1953125 14.12890625 C-0.2053125 13.46890625 0.7846875 12.80890625 1.8046875 12.12890625 C2.16766686 10.15143503 2.16766686 10.15143503 1.9921875 8.00390625 C1.9303125 6.72515625 1.8684375 5.44640625 1.8046875 4.12890625 C-1.72099746 2.98731124 -1.72099746 2.98731124 -5.0078125 4.25390625 Z " fill="#1B2FAB" transform="translate(740.1953125,297.87109375)"/>
<path d="M0 0 C0.99 0 1.98 0 3 0 C3.06058594 1.31355469 3.12117187 2.62710937 3.18359375 3.98046875 C3.26803256 5.71615541 3.35267888 7.45183198 3.4375 9.1875 C3.47681641 10.05181641 3.51613281 10.91613281 3.55664062 11.80664062 C3.76347016 15.95914122 4.00103531 19.94537862 5 24 C4.195625 23.814375 3.39125 23.62875 2.5625 23.4375 C1.716875 23.293125 0.87125 23.14875 0 23 C-0.33 23.33 -0.66 23.66 -1 24 C-5.09262054 24.46331553 -7.18518118 24.63148459 -10.5 22.0625 C-12.58020687 17.81541098 -12.34117127 14.49076057 -11 10 C-9.3125 7.9375 -9.3125 7.9375 -7 7 C-3.75 6.8125 -3.75 6.8125 -1 7 C-0.67 4.69 -0.34 2.38 0 0 Z M-6.75 11.0625 C-8.70767152 14.09689086 -7.70550248 16.60076077 -7 20 C-3.41672247 21.00217064 -3.41672247 21.00217064 0 20 C0.04125 18.72125 0.0825 17.4425 0.125 16.125 C0.15980469 15.04605469 0.15980469 15.04605469 0.1953125 13.9453125 C0.18331689 11.76136355 0.18331689 11.76136355 -2 10 C-4.91382165 9.74051093 -4.91382165 9.74051093 -6.75 11.0625 Z " fill="#192EAA" transform="translate(914,291)"/>
<path d="M0 0 C2.9375 2.0625 2.9375 2.0625 5 5 C5.65622237 9.08316143 5.37781677 11.22793965 3.5625 14.9375 C0.28578522 17.5748558 -1.78456157 17.52398568 -5.87890625 17.46875 C-8.50363523 16.8886994 -9.40115509 16.14157208 -11 14 C-12.53571429 7.19897959 -12.53571429 7.19897959 -10.6875 3.0625 C-7.60507549 -0.70490774 -4.69826083 -0.47778924 0 0 Z M-6.6875 4.1875 C-8.46030193 6.63565504 -8.44413964 8.03906909 -8 11 C-6.93654948 12.98029682 -6.93654948 12.98029682 -5 14 C-1.68181015 13.75794651 -1.68181015 13.75794651 1 12 C1.41400106 7.8085289 1.41400106 7.8085289 -0.3125 4.125 C-2.74349944 2.50433371 -4.29757509 2.50570099 -6.6875 4.1875 Z " fill="#1A2DA8" transform="translate(981,298)"/>
<path d="M0 0 C3.28573474 2.16166759 3.90007665 3.63361438 4.9375 7.4375 C5.00686327 11.39120652 4.36628999 12.90562078 2 16 C0.43081508 17.56918492 -1.14085159 17.28258943 -3.3125 17.375 C-6.85320391 17.32425743 -7.70319607 17.23889097 -10.5625 14.9375 C-12.37781677 11.22793965 -12.65622237 9.08316143 -12 5 C-8.59008657 0.14345663 -5.84624621 -0.95665847 0 0 Z M-6.75 4.0625 C-8.70767152 7.09689086 -7.70550248 9.60076077 -7 13 C-4.65466049 13.76956136 -4.65466049 13.76956136 -2 14 C0.01951062 13.06402685 0.01951062 13.06402685 1 11 C0.77669287 7.35265021 0.61627165 5.61627165 -2 3 C-4.91382165 2.74051093 -4.91382165 2.74051093 -6.75 4.0625 Z " fill="#1A2EA4" transform="translate(873,298)"/>
<path d="M0 0 C2.93052231 1.99524923 4.64521503 3.42836485 5.4453125 6.97265625 C5.63302621 10.32021744 5.22285193 12.62858012 3.5 15.5 C-0.04101433 17.6246086 -2.97168467 17.66173558 -7 17 C-9.4375 15.9375 -9.4375 15.9375 -11 14 C-12.17812963 9.83727532 -12.2639018 7.67860462 -10.6875 3.625 C-7.85152649 -0.78651436 -5.04054015 -0.5125973 0 0 Z M-6.75 4.125 C-8.30660998 6.05061124 -8.30660998 6.05061124 -7.8125 9.0625 C-7.23351637 12.09515868 -7.23351637 12.09515868 -5 14 C-1.69316534 13.71016731 -1.69316534 13.71016731 1 12 C1.41400106 7.8085289 1.41400106 7.8085289 -0.3125 4.125 C-2.7448703 2.5034198 -4.30359524 2.55231122 -6.75 4.125 Z " fill="#142DAA" transform="translate(723,298)"/>
<path d="M0 0 C3.28573474 2.16166759 3.90007665 3.63361438 4.9375 7.4375 C5.00698608 11.39820668 4.43366566 12.93538398 2 16 C-1.20841035 17.60420518 -4.5193987 17.47462745 -8 17 C-10.5 15.5 -10.5 15.5 -12 13 C-12.7099846 8.0301078 -12.79117716 6.15080314 -9.9375 2 C-6.25623347 -0.50639423 -4.37098953 -0.71525283 0 0 Z M-6 3 C-8.37994368 4.94332332 -8.37994368 4.94332332 -8.25 8.5 C-8.37994368 12.05667668 -8.37994368 12.05667668 -6 14 C-2.90073181 13.67801034 -2.90073181 13.67801034 0 13 C1.11085525 8.71347338 1.11085525 8.71347338 -0.1875 4.625 C-2.09066417 2.55496999 -2.09066417 2.55496999 -6 3 Z " fill="#1B2EA5" transform="translate(786,298)"/>
<path d="M0 0 C0.66 0.33 1.32 0.66 2 1 C2 1.66 2 2.32 2 3 C3.4837915 2.98428955 3.4837915 2.98428955 4.99755859 2.96826172 C8.66142164 2.93210981 12.32526886 2.90911718 15.98925781 2.89013672 C17.57619883 2.88006812 19.16312125 2.86641233 20.75 2.84912109 C23.02869247 2.82490999 25.30714006 2.81352578 27.5859375 2.8046875 C28.29744965 2.79436493 29.00896179 2.78404236 29.74203491 2.77340698 C31.49631665 2.77300578 33.24996709 2.87797791 35 3 C35.66 3.66 36.32 4.32 37 5 C36.03175293 4.95286865 35.06350586 4.9057373 34.06591797 4.85717773 C30.45487083 4.69361144 26.8441457 4.59073639 23.23046875 4.50561523 C21.67033758 4.4604995 20.11058403 4.39918281 18.55175781 4.32104492 C9.59105079 3.57074523 9.59105079 3.57074523 1.67675781 6.86767578 C0.07663175 9.21339249 -1.00398257 11.34563747 -2 14 C-2.55905029 15.38529907 -2.55905029 15.38529907 -3.12939453 16.79858398 C-3.41669434 17.52505127 -3.70399414 18.25151855 -4 19 C-4.66 18.01 -5.32 17.02 -6 16 C-5.21069203 13.51064409 -4.1651105 11.330221 -3 9 C-3.66 8.34 -4.32 7.68 -5 7 C-5 6.67 -5 6.34 -5 6 C-8.62528568 5.79859524 -10.86501708 6.14223235 -14 8 C-12.33333333 6.33333333 -10.66666667 4.66666667 -9 3 C-8.2884375 2.1028125 -8.2884375 2.1028125 -7.5625 1.1875 C-5.12001962 -0.66878509 -2.96325413 -0.25219184 0 0 Z " fill="#1D2EAE" transform="translate(847,194)"/>
<path d="M0 0 C1.32 0 2.64 0 4 0 C4.33 4.62 4.66 9.24 5 14 C6.98 13.67 8.96 13.34 11 13 C11 8.71 11 4.42 11 0 C12.32 0 13.64 0 15 0 C15.33 5.61 15.66 11.22 16 17 C14.35 16.67 12.7 16.34 11 16 C10.67 16.33 10.34 16.66 10 17 C6.625 17.3125 6.625 17.3125 3 17 C0.45452579 14.6284762 0.02304197 13.25438338 -0.29296875 9.765625 C-0.24076172 8.02539062 -0.24076172 8.02539062 -0.1875 6.25 C-0.16042969 5.07953125 -0.13335938 3.9090625 -0.10546875 2.703125 C-0.07066406 1.81109375 -0.03585937 0.9190625 0 0 Z " fill="#1B30AC" transform="translate(793,298)"/>
<path d="M0 0 C2.74277578 3.19990508 4.6302836 6.00499382 6 10 C6.66 10 7.32 10 8 10 C8.433125 8.88625 8.433125 8.88625 8.875 7.75 C9.82302644 5.43260203 10.84845911 3.22082885 12 1 C13.32 1.33 14.64 1.66 16 2 C14.94565932 4.98729859 13.88138776 7.15455534 11.9375 9.6875 C9.37327192 14.07150284 9.19762729 18.00002963 9 23 C7.68 23 6.36 23 5 23 C4.979375 21.7625 4.95875 20.525 4.9375 19.25 C4.26113677 12.62375396 0.54955578 7.47725187 -3 2 C-2.01 1.34 -1.02 0.68 0 0 Z " fill="#1C2DA2" transform="translate(759,292)"/>
<path d="M0 0 C0.61875 0.804375 1.2375 1.60875 1.875 2.4375 C3.74164041 5.03874519 3.74164041 5.03874519 6 6 C12.99286189 6.46260471 19.30629603 6.05960122 26 4 C26 6.31 26 8.62 26 11 C24.10667466 11.81832722 22.21022267 12.62942268 20.3125 13.4375 C19.25675781 13.88996094 18.20101563 14.34242188 17.11328125 14.80859375 C12.17419752 16.69870735 7.96201937 17.12046175 2.6875 17.0625 C1.61886719 17.05347656 0.55023437 17.04445312 -0.55078125 17.03515625 C-1.35902344 17.02355469 -2.16726563 17.01195312 -3 17 C-3 16.67 -3 16.34 -3 16 C1.95 15.67 6.9 15.34 12 15 C12 14.34 12 13.68 12 13 C14.64 12.34 17.28 11.68 20 11 C19.2575 10.855625 18.515 10.71125 17.75 10.5625 C15.47972261 10.09812508 13.24240521 9.58136431 11 9 C11 10.32 11 11.64 11 13 C9.68 13.33 8.36 13.66 7 14 C8 12 9 10 10 8 C7.36 8 4.72 8 2 8 C0.23537317 4.91190305 0 3.76687864 0 0 Z " fill="#1D31B6" transform="translate(1027,181)"/>
<path d="M0 0 C0.80308594 0.01417969 1.60617187 0.02835938 2.43359375 0.04296875 C3.64208984 0.05263672 3.64208984 0.05263672 4.875 0.0625 C6.87109375 0.23046875 6.87109375 0.23046875 7.87109375 1.23046875 C10.05402149 1.46528568 12.24312549 1.64410198 14.43359375 1.79296875 C15.63113281 1.87675781 16.82867188 1.96054688 18.0625 2.046875 C18.98933594 2.10746094 19.91617188 2.16804687 20.87109375 2.23046875 C20.87109375 2.89046875 20.87109375 3.55046875 20.87109375 4.23046875 C20.23171875 4.51921875 19.59234375 4.80796875 18.93359375 5.10546875 C16.71903296 6.05870326 16.71903296 6.05870326 15.87109375 8.23046875 C14.28814593 8.28484482 12.70465119 8.32343146 11.12109375 8.35546875 C10.239375 8.37867188 9.35765625 8.401875 8.44921875 8.42578125 C5.71895249 8.2189429 4.26186181 7.48464216 1.87109375 6.23046875 C-0.46094437 6.15273415 -2.79729684 6.14079147 -5.12890625 6.23046875 C-4.44082455 2.79006027 -3.90626442 0.42288 0 0 Z " fill="#1A2FC5" transform="translate(642.12890625,188.76953125)"/>
<path d="M0 0 C3.3 0.66 6.6 1.32 10 2 C11.10191901 6.40767604 10.58706842 7.8922935 9 12 C8.34 12 7.68 12 7 12 C7 12.66 7 13.32 7 14 C5.02 14.99 5.02 14.99 3 16 C3.33 16.66 3.66 17.32 4 18 C3.030625 18.2475 2.06125 18.495 1.0625 18.75 C0.051875 19.1625 -0.95875 19.575 -2 20 C-2.96877057 22.03243548 -2.96877057 22.03243548 -3 24 C-3.33 24 -3.66 24 -4 24 C-4.33 27.96 -4.66 31.92 -5 36 C-4.34 36 -3.68 36 -3 36 C-3.33 36.99 -3.66 37.98 -4 39 C-7.50953629 35.0051023 -7.57092478 31.97526511 -7.40625 26.80859375 C-6.32708297 19.34781401 -0.88140171 14.5886574 4.42578125 9.6640625 C6.22907473 8.13963349 6.22907473 8.13963349 6 6 C4.02043058 4.30911778 2.02054804 2.64169528 0 1 C0 0.67 0 0.34 0 0 Z " fill="#1B2CAF" transform="translate(732,152)"/>
<path d="M0 0 C5.86546547 1.77741378 10.32468788 5.27654388 13.5234375 10.4765625 C17.93017951 19.11173904 19.71028173 27.24170378 16.75 36.75 C15.32228124 40.59596009 13.4426206 43.71509643 11 47 C11 44.37886292 11.31292445 42.49064888 12 40 C12.66 40 13.32 40 14 40 C13.979375 39.195625 13.95875 38.39125 13.9375 37.5625 C14 35 14 35 15 34 C15.18153617 31.58646168 15.27814571 29.22875181 15.3125 26.8125 C15.34988281 25.49894531 15.38726563 24.18539062 15.42578125 22.83203125 C14.94037036 18.46333327 13.75825555 16.37233842 11 13 C10.34 12.67 9.68 12.34 9 12 C9 11.34 9 10.68 9 10 C8.34 9.67 7.68 9.34 7 9 C7 8.01 7 7.02 7 6 C5.68 5.34 4.36 4.68 3 4 C2.67 4.66 2.34 5.32 2 6 C-0.0625 7.125 -0.0625 7.125 -2 8 C-1.34 5.36 -0.68 2.72 0 0 Z " fill="#1C2DAE" transform="translate(507,56)"/>
<path d="M0 0 C0.99 0 1.98 0 3 0 C3 1.65 3 3.3 3 5 C4.32 5 5.64 5 7 5 C7 5.99 7 6.98 7 8 C5.68 8 4.36 8 3 8 C3.33 10.97 3.66 13.94 4 17 C5.65 17.33 7.3 17.66 9 18 C9 18.99 9 19.98 9 21 C2.25 21.125 2.25 21.125 0 20 C-0.96070434 17.11788698 -1.10581883 15.30149956 -1.0625 12.3125 C-1.05347656 11.50425781 -1.04445313 10.69601562 -1.03515625 9.86328125 C-1.01775391 8.94095703 -1.01775391 8.94095703 -1 8 C-1.66 8 -2.32 8 -3 8 C-3 7.01 -3 6.02 -3 5 C-2.34 4.67 -1.68 4.34 -1 4 C-0.34786708 1.97536745 -0.34786708 1.97536745 0 0 Z " fill="#1F32B8" transform="translate(1035,294)"/>
<path d="M0 0 C1.32 0 2.64 0 4 0 C4.33 6.6 4.66 13.2 5 20 C6.32 20.33 7.64 20.66 9 21 C9 21.99 9 22.98 9 24 C5.625 24.1875 5.625 24.1875 2 24 C-0.16926659 20.74610012 -0.24080049 19.86604043 -0.1953125 16.11328125 C-0.18886719 15.17548828 -0.18242188 14.23769531 -0.17578125 13.27148438 C-0.15902344 12.29501953 -0.14226563 11.31855469 -0.125 10.3125 C-0.11597656 9.32443359 -0.10695313 8.33636719 -0.09765625 7.31835938 C-0.0740843 4.87866235 -0.04118022 2.43945303 0 0 Z " fill="#172CA5" transform="translate(960,291)"/>
<path d="M0 0 C1.32 0 2.64 0 4 0 C4.33 6.6 4.66 13.2 5 20 C6.32 20.33 7.64 20.66 9 21 C9 21.99 9 22.98 9 24 C5.625 24.1875 5.625 24.1875 2 24 C-0.16926659 20.74610012 -0.24080049 19.86604043 -0.1953125 16.11328125 C-0.18886719 15.17548828 -0.18242188 14.23769531 -0.17578125 13.27148438 C-0.15902344 12.29501953 -0.14226563 11.31855469 -0.125 10.3125 C-0.11597656 9.32443359 -0.10695313 8.33636719 -0.09765625 7.31835938 C-0.0740843 4.87866235 -0.04118022 2.43945303 0 0 Z " fill="#192FA7" transform="translate(702,291)"/>
<path d="M0 0 C2.31 0 4.62 0 7 0 C2.43913169 5.53819723 -3.58511177 8.02275522 -10 11 C-9.16597656 11.23074219 -8.33195312 11.46148437 -7.47265625 11.69921875 C-0.42704617 13.74107368 5.78721729 16.08289669 12 20 C10 21 10 21 6.5 20.1875 C3 19 3 19 1 17 C-1.06874034 16.3574765 -1.06874034 16.3574765 -3 16 C-3 15.34 -3 14.68 -3 14 C-3.9075 14.061875 -4.815 14.12375 -5.75 14.1875 C-9.29238832 13.98313144 -10.52653696 13.47346304 -13 11 C-13 10.34 -13 9.68 -13 9 C-9.535 8.505 -9.535 8.505 -6 8 C-6 7.34 -6 6.68 -6 6 C-4.68 6 -3.36 6 -2 6 C-1.34 4.02 -0.68 2.04 0 0 Z " fill="#1D2DA8" transform="translate(506,107)"/>
<path d="M0 0 C0.598125 0.309375 1.19625 0.61875 1.8125 0.9375 C7.17880979 3.54399333 11.99904955 2.94740177 17.84765625 2.7421875 C19.40806641 2.86980469 19.40806641 2.86980469 21 3 C21.99 4.485 21.99 4.485 23 6 C20.36 6.99 17.72 7.98 15 9 C17.97 9.495 17.97 9.495 21 10 C17.93753253 11.78409802 15.77920727 12.22880021 12.25 12.125 C11.45078125 12.10695312 10.6515625 12.08890625 9.828125 12.0703125 C9.22484375 12.04710937 8.6215625 12.02390625 8 12 C8 10.68 8 9.36 8 8 C8.66 7.67 9.32 7.34 10 7 C5.05 5.02 5.05 5.02 0 3 C0 2.01 0 1.02 0 0 Z " fill="#1A2FB4" transform="translate(858,151)"/>
<path d="M0 0 C3.63 0 7.26 0 11 0 C10.67 1.32 10.34 2.64 10 4 C8.35 4.66 6.7 5.32 5 6 C4.67 9.63 4.34 13.26 4 17 C2.68 17 1.36 17 0 17 C0 11.39 0 5.78 0 0 Z " fill="#1E2F9E" transform="translate(812,298)"/>
<path d="M0 0 C0.99 0 1.98 0 3 0 C3.33 6.93 3.66 13.86 4 21 C5.65 21.33 7.3 21.66 9 22 C9 22.66 9 23.32 9 24 C5.625 24.125 5.625 24.125 2 24 C0 22 0 22 -0.22705078 19.75341797 C-0.21657715 18.84221191 -0.20610352 17.93100586 -0.1953125 16.9921875 C-0.18886719 16.00605469 -0.18242188 15.01992188 -0.17578125 14.00390625 C-0.15902344 12.97136719 -0.14226563 11.93882812 -0.125 10.875 C-0.11597656 9.83472656 -0.10695313 8.79445313 -0.09765625 7.72265625 C-0.07403747 5.14820908 -0.04110149 2.57421788 0 0 Z " fill="#1D31A4" transform="translate(893,291)"/>
<path d="M0 0 C1.32 0 2.64 0 4 0 C4 7.26 4 14.52 4 22 C2.68 22 1.36 22 0 22 C0 14.74 0 7.48 0 0 Z " fill="#1A2C9D" transform="translate(1025,293)"/>
<path d="M0 0 C0 3 0 3 0 3 Z M-5 2 C-2.525 2.495 -2.525 2.495 0 3 C0.33872513 4.41538717 0.67074624 5.83237963 1 7.25 C1.185625 8.03890625 1.37125 8.8278125 1.5625 9.640625 C2 12 2 12 2 16 C2.66 16 3.32 16 4 16 C4.87226626 20.41125902 5.05766677 24.4408123 4.87890625 28.9296875 C4.83056641 30.21875 4.78222656 31.5078125 4.73242188 32.8359375 C4.67591408 34.18229725 4.61927179 35.52865136 4.5625 36.875 C4.50920597 38.24477001 4.45646622 39.6145617 4.40429688 40.984375 C4.27497734 44.32317023 4.14002445 47.66163941 4 51 C3.34 51 2.68 51 2 51 C2.01571045 50.25016846 2.0314209 49.50033691 2.04760742 48.7277832 C2.11083561 45.25610214 2.14926565 41.78454287 2.1875 38.3125 C2.21263672 37.13365234 2.23777344 35.95480469 2.26367188 34.74023438 C2.35993923 23.02770579 0.33073418 12.47205141 -5 2 Z " fill="#1E2EA2" transform="translate(681,110)"/>
<path d="M0 0 C1.84790538 3.31016094 2.74541487 6.57173491 3.625 10.25 C3.88539063 11.32765625 4.14578125 12.4053125 4.4140625 13.515625 C4.60742188 14.33546875 4.80078125 15.1553125 5 16 C4.34 16 3.68 16 3 16 C3.66 17.65 4.32 19.3 5 21 C5.66 20.01 6.32 19.02 7 18 C7.66 18.33 8.32 18.66 9 19 C8.34 20.32 7.68 21.64 7 23 C5.35 22.67 3.7 22.34 2 22 C1.16193384 19.06377536 0.32937556 16.12617933 -0.5 13.1875 C-0.73847656 12.35412109 -0.97695313 11.52074219 -1.22265625 10.66210938 C-1.56103516 9.45844727 -1.56103516 9.45844727 -1.90625 8.23046875 C-2.11572266 7.49207764 -2.32519531 6.75368652 -2.54101562 5.99291992 C-3 4 -3 4 -3 1 C-2.01 0.67 -1.02 0.34 0 0 Z " fill="#1C30A1" transform="translate(835,292)"/>
<path d="M0 0 C0.33 0 0.66 0 1 0 C1.625 2.875 1.625 2.875 2 6 C1.34 6.66 0.68 7.32 0 8 C-0.31255694 11.10839004 -0.31255694 11.10839004 -0.265625 14.765625 C-0.26753845 15.43664246 -0.2694519 16.10765991 -0.27142334 16.79901123 C-0.27278535 18.22131728 -0.26908778 19.64363575 -0.26074219 21.06591797 C-0.25010904 23.22782931 -0.26060147 25.38889697 -0.2734375 27.55078125 C-0.2721146 28.93489765 -0.26954951 30.31901353 -0.265625 31.703125 C-0.26336914 32.95770508 -0.26111328 34.21228516 -0.25878906 35.50488281 C-0.00024232 38.9967273 0.83072697 41.72056385 2 45 C1.625 47.375 1.625 47.375 1 49 C0.516941 47.60550891 0.03874483 46.20933293 -0.4375 44.8125 C-0.83775391 43.64654297 -0.83775391 43.64654297 -1.24609375 42.45703125 C-5.2147521 29.52290636 -4.5860627 12.69356639 0 0 Z " fill="#212F9D" transform="translate(610,124)"/>
<path d="M0 0 C0.66 0 1.32 0 2 0 C2.6875 2.8125 2.6875 2.8125 3 6 C1.8125 7.875 1.8125 7.875 0 9 C-1.32 9 -2.64 9 -4 9 C-4.33 10.32 -4.66 11.64 -5 13 C-5.61875 12.814375 -6.2375 12.62875 -6.875 12.4375 C-9.04160178 11.76313824 -9.04160178 11.76313824 -11 13 C-11.66 12.34 -12.32 11.68 -13 11 C-13 10.01 -13 9.02 -13 8 C-11.68 7.67 -10.36 7.34 -9 7 C-9 7.66 -9 8.32 -9 9 C-8.34 9 -7.68 9 -7 9 C-7 7.35 -7 5.7 -7 4 C-5.35 4.33 -3.7 4.66 -2 5 C-2 4.01 -2 3.02 -2 2 C-1.34 2 -0.68 2 0 2 C0 1.34 0 0.68 0 0 Z " fill="#1B30C6" transform="translate(902,222)"/>
<path d="M0 0 C9.23791351 0.30238669 17.28540319 1.93348885 26 5 C26 5.33 26 5.66 26 6 C24.02 6 22.04 6 20 6 C20 5.34 20 4.68 20 4 C18.35 4 16.7 4 15 4 C14.67 5.65 14.34 7.3 14 9 C13.34 9 12.68 9 12 9 C12 10.65 12 12.3 12 14 C8.04 12.35 4.08 10.7 0 9 C0 8.67 0 8.34 0 8 C6.625 7.875 6.625 7.875 10 9 C10.99 7.35 11.98 5.7 13 4 C10.87420503 1.87420503 6.34787605 2.55328631 3.46875 2.37890625 C2.6540625 2.25386719 1.839375 2.12882812 1 2 C0.67 1.34 0.34 0.68 0 0 Z " fill="#1B2DA7" transform="translate(478,49)"/>
<path d="M0 0 C2.9375 2 2.9375 2 5 5 C5.40476927 7.80743814 5.24230971 10.14074541 5 13 C4.67 13 4.34 13 4 13 C3.67 10.36 3.34 7.72 3 5 C2.01 5.33 1.02 5.66 0 6 C0 5.34 0 4.68 0 4 C-2.41645782 3.83312552 -2.41645782 3.83312552 -5 4 C-7.1385485 6.1385485 -7.42655063 7.13275314 -8 10 C-9.32 10 -10.64 10 -12 10 C-11.69393785 6.6333163 -11.2999963 4.43845613 -9.375 1.625 C-6.00735985 -0.67917484 -3.99807408 -0.63127485 0 0 Z " fill="#1D2FA2" transform="translate(723,298)"/>
<path d="M0 0 C2.79192205 -0.05380578 5.5828141 -0.09357669 8.375 -0.125 C9.1690625 -0.14175781 9.963125 -0.15851563 10.78125 -0.17578125 C12.85492015 -0.19335473 14.92883241 -0.10335168 17 0 C17.66 0.66 18.32 1.32 19 2 C18.67 2.66 18.34 3.32 18 4 C11.4 4 4.8 4 -2 4 C-1.34 2.68 -0.68 1.36 0 0 Z M19 0 C21 1 21 1 21 1 Z " fill="#1A30C5" transform="translate(457,117)"/>
<path d="M0 0 C1.32 0.33 2.64 0.66 4 1 C4.33 0.67 4.66 0.34 5 0 C6.66617115 -0.04063832 8.33388095 -0.042721 10 0 C9.67 1.32 9.34 2.64 9 4 C8.360625 4.12375 7.72125 4.2475 7.0625 4.375 C6.0415625 4.684375 6.0415625 4.684375 5 5 C3.78306124 7.43387753 3.68040104 9.41838846 3.4375 12.125 C3.31181641 13.49011719 3.31181641 13.49011719 3.18359375 14.8828125 C3.12300781 15.58148438 3.06242188 16.28015625 3 17 C2.01 17 1.02 17 0 17 C0 11.39 0 5.78 0 0 Z " fill="#1C33AC" transform="translate(881,298)"/>
<path d="M0 0 C0.99 0 1.98 0 3 0 C3 6.27 3 12.54 3 19 C2.67 19 2.34 19 2 19 C1.896875 18.236875 1.79375 17.47375 1.6875 16.6875 C0.94460116 13.78344089 0.43006017 12.71004234 -2 11 C-3.32 11 -4.64 11 -6 11 C-6 10.34 -6 9.68 -6 9 C-6.45375 9.495 -6.9075 9.99 -7.375 10.5 C-9 12 -9 12 -11 12 C-9.25 8.125 -9.25 8.125 -7 7 C-5.00039988 6.960008 -2.99952758 6.95653201 -1 7 C-0.67 4.69 -0.34 2.38 0 0 Z " fill="#1F2FA0" transform="translate(914,291)"/>
<path d="M0 0 C0.66 0.33 1.32 0.66 2 1 C1.01 2.485 1.01 2.485 0 4 C0.66 4.33 1.32 4.66 2 5 C2 5.99 2 6.98 2 8 C1.01 8 0.02 8 -1 8 C-1 8.66 -1 9.32 -1 10 C-1.598125 10.12375 -2.19625 10.2475 -2.8125 10.375 C-5.26231348 10.95475985 -5.26231348 10.95475985 -8 13 C-8 12.34 -8 11.68 -8 11 C-9.32 11 -10.64 11 -12 11 C-11.67 10.01 -11.34 9.02 -11 8 C-8.4375 6.8125 -8.4375 6.8125 -6 6 C-6 5.34 -6 4.68 -6 4 C-4.03852126 2.61061923 -2.03833424 1.2739589 0 0 Z " fill="#1A30C6" transform="translate(794,221)"/>
<path d="M0 0 C1 3 1 3 0.58203125 5.07421875 C-2.08027312 18.45721188 0.03624257 32.15360544 4 45 C4.34387665 46.33065312 4.68317115 47.66264875 5 49 C3.06640625 48.37109375 3.06640625 48.37109375 1 47 C0.27734375 44.28515625 0.27734375 44.28515625 -0.0625 41.0625 C-0.42382569 36.73134926 -0.42382569 36.73134926 -2.55859375 33.12109375 C-3.03425781 32.75113281 -3.50992188 32.38117188 -4 32 C-3.34 32 -2.68 32 -2 32 C-2 22.1 -2 12.2 -2 2 C-1.34 2 -0.68 2 0 2 C0 1.34 0 0.68 0 0 Z " fill="#1C2EA5" transform="translate(629,128)"/>
<path d="M0 0 C0.66 0.33 1.32 0.66 2 1 C2 1.66 2 2.32 2 3 C2.928125 2.938125 3.85625 2.87625 4.8125 2.8125 C8.59782701 3.03516629 8.48986618 3.48986618 11 6 C12.86509405 6.95818869 14.7649186 7.85061163 16.6875 8.6875 C17.68136719 9.12449219 18.67523438 9.56148437 19.69921875 10.01171875 C20.45847656 10.33785156 21.21773438 10.66398438 22 11 C19 12 19 12 16.6953125 11.07421875 C15.84710938 10.61660156 14.99890625 10.15898437 14.125 9.6875 C12.42318496 8.77934488 10.71477192 7.88344632 9 7 C8.20722656 6.54496094 7.41445313 6.08992187 6.59765625 5.62109375 C2.65418261 4.6782181 0.71839088 6.34777646 -2.6875 8.375 C-8.86679537 12 -8.86679537 12 -11 12 C-11 11.34 -11 10.68 -11 10 C-8.03 8.35 -5.06 6.7 -2 5 C-2.33 4.01 -2.66 3.02 -3 2 C-2.01 1.34 -1.02 0.68 0 0 Z " fill="#1E2DA7" transform="translate(261,137)"/>
<path d="M0 0 C1.43352212 0.00015908 2.86704998 0.00585132 4.30053711 0.01586914 C5.43041298 0.01799156 5.43041298 0.01799156 6.58311462 0.02015686 C8.99807646 0.02577163 11.41294687 0.03832656 13.82788086 0.05102539 C15.46134307 0.05603849 17.09480672 0.06060173 18.72827148 0.06469727 C22.74067671 0.07574585 26.75301326 0.09302033 30.76538086 0.11352539 C30.76538086 0.77352539 30.76538086 1.43352539 30.76538086 2.11352539 C29.87753906 2.09257812 28.98969727 2.07163086 28.07495117 2.05004883 C24.77243631 1.98176862 21.47067416 1.93167669 18.16772461 1.89379883 C16.73986965 1.87371557 15.31209661 1.84644287 13.88452148 1.81176758 C11.82897718 1.7630987 9.77452231 1.74052572 7.71850586 1.72290039 C6.48261719 1.70195312 5.24672852 1.68100586 3.97338867 1.65942383 C0.21710595 2.19113508 -0.91821807 3.19020701 -3.23461914 6.11352539 C-3.61680681 4.45737882 -3.94857016 2.78895515 -4.23461914 1.11352539 C-3.23461914 0.11352539 -3.23461914 0.11352539 0 0 Z " fill="#2131A0" transform="translate(742.234619140625,196.886474609375)"/>
<path d="M0 0 C0.99 0 1.98 0 3 0 C3.08703823 3.43734063 3.14040272 6.87439837 3.1875 10.3125 C3.22520508 11.77719727 3.22520508 11.77719727 3.26367188 13.27148438 C3.27817383 14.67817383 3.27817383 14.67817383 3.29296875 16.11328125 C3.31653442 17.40939331 3.31653442 17.40939331 3.34057617 18.73168945 C2.92717867 21.48500574 2.205702 22.35169561 0 24 C-2.26171875 24.29296875 -2.26171875 24.29296875 -4.6875 24.1875 C-5.49574219 24.16042969 -6.30398438 24.13335937 -7.13671875 24.10546875 C-7.75160156 24.07066406 -8.36648438 24.03585937 -9 24 C-9 22.68 -9 21.36 -9 20 C-7.88625 20.061875 -6.7725 20.12375 -5.625 20.1875 C-4.42875 20.125625 -3.2325 20.06375 -2 20 C-1.34 19.01 -0.68 18.02 0 17 C0.33 17 0.66 17 1 17 C1.33 11.72 1.66 6.44 2 1 C1.34 0.67 0.68 0.34 0 0 Z " fill="#1B2E96" transform="translate(1018,298)"/>
<path d="M0 0 C0.33 0 0.66 0 1 0 C1.08703823 3.43734063 1.14040272 6.87439837 1.1875 10.3125 C1.22520508 11.77719727 1.22520508 11.77719727 1.26367188 13.27148438 C1.27817383 14.67817383 1.27817383 14.67817383 1.29296875 16.11328125 C1.31653442 17.40939331 1.31653442 17.40939331 1.34057617 18.73168945 C0.92717867 21.48500574 0.205702 22.35169561 -2 24 C-4.26171875 24.29296875 -4.26171875 24.29296875 -6.6875 24.1875 C-7.49574219 24.16042969 -8.30398438 24.13335937 -9.13671875 24.10546875 C-9.75160156 24.07066406 -10.36648438 24.03585937 -11 24 C-11 22.68 -11 21.36 -11 20 C-9.88625 20.061875 -8.7725 20.12375 -7.625 20.1875 C-6.42875 20.125625 -5.2325 20.06375 -4 20 C-3.34 19.01 -2.68 18.02 -2 17 C-1.34 17 -0.68 17 0 17 C0 11.39 0 5.78 0 0 Z " fill="#1E3090" transform="translate(744,298)"/>
<path d="M0 0 C0.99 0.33 1.98 0.66 3 1 C3.82555811 24.00766939 3.82555811 24.00766939 -1 32 C-1.66 32 -2.32 32 -3 32 C-2.78561279 31.41299316 -2.57122559 30.82598633 -2.3503418 30.22119141 C-0.07702834 23.45882842 0.372242 17.47098761 0.1875 10.375 C0.17396484 9.37082031 0.16042969 8.36664063 0.14648438 7.33203125 C0.11156152 4.88743136 0.06252748 2.44402266 0 0 Z " fill="#1E2D9E" transform="translate(888,117)"/>
<path d="M0 0 C3.75518889 3.75518889 4.14535397 8.76510694 4.3125 13.875 C4.13552208 21.63843149 1.588402 27.82939041 -3 34 C-3 31.37886292 -2.68707555 29.49064888 -2 27 C-1.34 27 -0.68 27 0 27 C-0.020625 26.195625 -0.04125 25.39125 -0.0625 24.5625 C0 22 0 22 1 21 C1.1009312 18.59249399 1.13869071 16.21978238 1.125 13.8125 C1.12886719 11.84216797 1.12886719 11.84216797 1.1328125 9.83203125 C1.01552441 6.44792491 0.64999244 3.31702491 0 0 Z " fill="#202C9F" transform="translate(521,69)"/>
<path d="M0 0 C1.16202329 3.62014948 0.99965705 6.91039134 0.875 10.6875 C0.82178806 19.21914792 2.03734633 25.62612883 8 32 C7.67 32.66 7.34 33.32 7 34 C4 33 4 33 2.3125 30.125 C1 27 1 27 1 24 C0.34 24 -0.32 24 -1 24 C-1.02887236 20.18751574 -1.04675492 16.3750593 -1.0625 12.5625 C-1.07087891 11.47388672 -1.07925781 10.38527344 -1.08789062 9.26367188 C-1.09111328 8.22919922 -1.09433594 7.19472656 -1.09765625 6.12890625 C-1.10289307 5.17056885 -1.10812988 4.21223145 -1.11352539 3.22485352 C-1 1 -1 1 0 0 Z " fill="#1E2FA1" transform="translate(850,117)"/>
<path d="M0 0 C0.66 0.33 1.32 0.66 2 1 C1.236875 1.5775 0.47375 2.155 -0.3125 2.75 C-3.00891579 4.83357198 -3.00891579 4.83357198 -4.6875 7.25 C-5.3371875 8.11625 -5.3371875 8.11625 -6 9 C-6.66 9 -7.32 9 -8 9 C-8 9.66 -8 10.32 -8 11 C-8.66 11 -9.32 11 -10 11 C-10 12.32 -10 13.64 -10 15 C-10.66 15 -11.32 15 -12 15 C-12.12375 15.556875 -12.2475 16.11375 -12.375 16.6875 C-13.05976855 19.22114364 -13.99133763 21.57921032 -15 24 C-15.97894309 21.39949472 -16.0914976 20.25694533 -15.14453125 17.59765625 C-11.06467194 9.83276273 -7.28890074 4.90599088 0 0 Z " fill="#1F2AA0" transform="translate(741,98)"/>
<path d="M0 0 C0.33 0 0.66 0 1 0 C1 6.6 1 13.2 1 20 C1.66 20 2.32 20 3 20 C3 14.39 3 8.78 3 3 C3.33 3 3.66 3 4 3 C4.33 5.64 4.66 8.28 5 11 C5.99 11.33 6.98 11.66 8 12 C6.68 12 5.36 12 4 12 C4 14.31 4 16.62 4 19 C4.99 19.33 5.98 19.66 7 20 C4 22 4 22 0 22 C0 14.74 0 7.48 0 0 Z " fill="#1E2F90" transform="translate(941,293)"/>
<path d="M0 0 C1.54542882 3.09085763 0.75706731 5.57919597 0.01171875 8.8671875 C-1.2766152 11.58313474 -2.33916703 12.04678037 -5.125 13.0625 C-6.40375 13.371875 -7.6825 13.68125 -9 14 C-7.65070536 10.16336928 -5.92248975 7.34827431 -3.375 4.1875 C-2.42753906 3.00220703 -2.42753906 3.00220703 -1.4609375 1.79296875 C-0.97882812 1.20128906 -0.49671875 0.60960938 0 0 Z " fill="#1C2DAC" transform="translate(622,106)"/>
<path d="M0 0 C0.33 0 0.66 0 1 0 C1 1.98 1 3.96 1 6 C1.66 6 2.32 6 3 6 C3.33 4.68 3.66 3.36 4 2 C4.268125 2.804375 4.53625 3.60875 4.8125 4.4375 C5.204375 5.283125 5.59625 6.12875 6 7 C9 8.33333333 9 8.33333333 12 7 C11.34 8.65 10.68 10.3 10 12 C3.61802233 11.51834131 3.61802233 11.51834131 1.0625 9.375 C-0.37148358 6.16962495 -0.20006114 3.46772635 0 0 Z " fill="#17299F" transform="translate(1006,303)"/>
<path d="M0 0 C3.3 0 6.6 0 10 0 C10 6.6 10 13.2 10 20 C9.67 20 9.34 20 9 20 C8.93941406 19.18015625 8.87882813 18.3603125 8.81640625 17.515625 C8.73261719 16.43796875 8.64882813 15.3603125 8.5625 14.25 C8.48128906 13.18265625 8.40007813 12.1153125 8.31640625 11.015625 C8.05909227 8.56320038 7.68187782 6.36078709 7 4 C5.02 4 3.04 4 1 4 C0.67 2.68 0.34 1.36 0 0 Z " fill="#1F319D" transform="translate(993,298)"/>
<path d="M0 0 C1.98 0.99 1.98 0.99 4 2 C3.67 2.66 3.34 3.32 3 4 C3.99 3.67 4.98 3.34 6 3 C6.99 3 7.98 3 9 3 C9.33 3.99 9.66 4.98 10 6 C9.34 6.66 8.68 7.32 8 8 C7.34 7.67 6.68 7.34 6 7 C6.99 8.6396875 6.99 8.6396875 8 10.3125 C9.58464929 12.93707538 10 13.8256378 10 17 C0 4.42465753 0 4.42465753 0 0 Z " fill="#1F2FAC" transform="translate(254,279)"/>
<path d="M0 0 C0.99 2.97 1.98 5.94 3 9 C1.35 9.66 -0.3 10.32 -2 11 C-2 10.01 -2 9.02 -2 8 C-1.34 8 -0.68 8 0 8 C0 7.34 0 6.68 0 6 C-1.32 6 -2.64 6 -4 6 C-4 5.34 -4 4.68 -4 4 C-3.01 3.67 -2.02 3.34 -1 3 C-1.33 2.34 -1.66 1.68 -2 1 C-3.19625 1.33 -4.3925 1.66 -5.625 2 C-9.15791497 2.89265823 -12.34079109 3.18296045 -16 3 C-10.86106206 0.12219475 -5.7943706 -1.75586988 0 0 Z " fill="#202FA4" transform="translate(806,94)"/>
<path d="M0 0 C0 6.6 0 13.2 0 20 C-0.66 20 -1.32 20 -2 20 C-2 14.39 -2 8.78 -2 3 C-3.98 3.66 -5.96 4.32 -8 5 C-3.375 0 -3.375 0 0 0 Z " fill="#212E9B" transform="translate(1027,74)"/>
<path d="M0 0 C0.598125 0.33 1.19625 0.66 1.8125 1 C4.05386471 2.20787988 4.05386471 2.20787988 7 2 C7.99 2.33 8.98 2.66 10 3 C10.33 3.99 10.66 4.98 11 6 C13.01508358 6.73323796 13.01508358 6.73323796 15 7 C15 7.66 15 8.32 15 9 C16.65 9 18.3 9 20 9 C20.33 9.66 20.66 10.32 21 11 C13.46860079 10.08805605 7.83239853 7.93994099 2 3 C1.34 2.01 0.68 1.02 0 0 Z " fill="#1C2CA4" transform="translate(829,232)"/>
<path d="M0 0 C0.33 0.66 0.66 1.32 1 2 C3.97 1.34 6.94 0.68 10 0 C6.18387615 3.25191199 1.76700109 5.11627147 -2.75 7.1875 C-3.54277344 7.55552734 -4.33554688 7.92355469 -5.15234375 8.30273438 C-7.09963272 9.20599492 -9.04955989 10.1035641 -11 11 C-11 10.01 -11 9.02 -11 8 C-9.576875 7.87625 -9.576875 7.87625 -8.125 7.75 C-4.92689868 7.36617977 -4.92689868 7.36617977 -3.8125 5.125 C-3.544375 4.42375 -3.27625 3.7225 -3 3 C-1.375 1.25 -1.375 1.25 0 0 Z " fill="#1D2CA6" transform="translate(230,154)"/>
<path d="M0 0 C5.91969002 1.75990784 11.41634992 4.39694605 17 7 C17.78375 6.34 18.5675 5.68 19.375 5 C22 3 22 3 24 3 C24 5 24 5 22.375 7.125 C19.25993187 9.58426431 17.92089723 9.39763816 14 9 C11.41984762 7.91710949 9.06972953 6.82188925 6.625 5.5 C5.98433594 5.16613281 5.34367188 4.83226562 4.68359375 4.48828125 C3.11666329 3.66973549 1.55749759 2.83635487 0 2 C0 1.34 0 0.68 0 0 Z " fill="#212D9A" transform="translate(249,225)"/>
<path d="M0 0 C2.74277578 3.19990508 4.6302836 6.00499382 6 10 C5.34 10 4.68 10 4 10 C3.67 10.99 3.34 11.98 3 13 C1.02 9.37 -0.96 5.74 -3 2 C-2.01 1.34 -1.02 0.68 0 0 Z " fill="#1E2F9A" transform="translate(759,292)"/>
<path d="M0 0 C1.93719378 -0.05406122 3.87481921 -0.09282025 5.8125 -0.125 C6.89144531 -0.14820313 7.97039063 -0.17140625 9.08203125 -0.1953125 C12 0 12 0 15 2 C17.50896686 2.45601261 17.50896686 2.45601261 20.1875 2.625 C21.08855469 2.69976562 21.98960937 2.77453125 22.91796875 2.8515625 C23.60503906 2.90054688 24.29210937 2.94953125 25 3 C25.33 2.34 25.66 1.68 26 1 C28.475 1.495 28.475 1.495 31 2 C31 2.33 31 2.66 31 3 C20.47520088 5.43939269 10.20729384 4.1407058 0 1 C0 0.67 0 0.34 0 0 Z " fill="#1D2FA1" transform="translate(633,194)"/>
<path d="M0 0 C2.475 0.99 2.475 0.99 5 2 C2.41994017 4.99358859 -0.54324813 6.45566888 -4.0625 8.1875 C-5.12597656 8.71730469 -6.18945312 9.24710938 -7.28515625 9.79296875 C-10 11 -10 11 -12 11 C-12 10.34 -12 9.68 -12 9 C-10.35 8.67 -8.7 8.34 -7 8 C-6.67 6.68 -6.34 5.36 -6 4 C-4.68 4 -3.36 4 -2 4 C-1.34 2.68 -0.68 1.36 0 0 Z " fill="#1E2DA8" transform="translate(203,168)"/>
<path d="M0 0 C0.66 0 1.32 0 2 0 C2 0.66 2 1.32 2 2 C2.99 2.33 3.98 2.66 5 3 C3.08850332 4.0098473 1.17058431 5.00754495 -0.75 6 C-1.81734375 6.556875 -2.8846875 7.11375 -3.984375 7.6875 C-7 9 -7 9 -11 9 C-10.3125 7.0625 -10.3125 7.0625 -9 5 C-5.70572419 3.90190806 -4.33588828 3.88803724 -1 5 C-1 4.34 -1 3.68 -1 3 C-0.34 3 0.32 3 1 3 C0.67 2.01 0.34 1.02 0 0 Z " fill="#1D2DAA" transform="translate(782,152)"/>
<path d="M0 0 C0.33 0 0.66 0 1 0 C1.04241723 2.33294775 1.04092937 4.66702567 1 7 C0.67 7.33 0.34 7.66 0 8 C-0.23653523 10.52596259 -0.42173692 13.03107207 -0.5625 15.5625 C-0.60568359 16.27341797 -0.64886719 16.98433594 -0.69335938 17.71679688 C-0.79971777 19.47761912 -0.90038846 21.2387832 -1 23 C-4.11773437 18.32339845 -3.47683424 13.48013849 -3 8 C-2.24100501 5.11757394 -1.25516248 2.71951871 0 0 Z " fill="#1F2F9E" transform="translate(720,206)"/>
<path d="M0 0 C0.99 0.99 1.98 1.98 3 3 C2.34 4.32 1.68 5.64 1 7 C-1.97 7 -4.94 7 -8 7 C-8.33 5.68 -8.66 4.36 -9 3 C-6.03 3 -3.06 3 0 3 C0 2.01 0 1.02 0 0 Z " fill="#142AA1" transform="translate(999,315)"/>
<path d="M0 0 C0.66 1.32 1.32 2.64 2 4 C1.34 4.66 0.68 5.32 0 6 C-0.46396693 8.89223503 -0.46396693 8.89223503 -0.625 12.125 C-0.69976563 13.22070312 -0.77453125 14.31640625 -0.8515625 15.4453125 C-0.90054688 16.28835937 -0.94953125 17.13140625 -1 18 C-0.34 18 0.32 18 1 18 C0.67 18.99 0.34 19.98 0 21 C-3.56998178 16.9766872 -3.42980783 13.899525 -3.3046875 8.70703125 C-2.92398593 5.32464419 -1.8457377 2.84551228 0 0 Z " fill="#202EA1" transform="translate(728,170)"/>
<path d="M0 0 C0.66 0 1.32 0 2 0 C2.14285714 8.57142857 2.14285714 8.57142857 1 12 C-0.65 12 -2.3 12 -4 12 C-4 11.01 -4 10.02 -4 9 C-3.34 8.67 -2.68 8.34 -2 8 C-1.31527335 6.11235097 -1.31527335 6.11235097 -0.875 3.9375 C-0.70742188 3.20402344 -0.53984375 2.47054688 -0.3671875 1.71484375 C-0.24601563 1.14894531 -0.12484375 0.58304687 0 0 Z " fill="#1630BA" transform="translate(855,302)"/>
<path d="M0 0 C0 5.28 0 10.56 0 16 C-0.66 16.33 -1.32 16.66 -2 17 C-3.03115279 13.73086376 -2.9638984 11.13958652 -2.5625 7.75 C-2.46066406 6.85796875 -2.35882812 5.9659375 -2.25390625 5.046875 C-2.17011719 4.37140625 -2.08632813 3.6959375 -2 3 C-2.66 3 -3.32 3 -4 3 C-4 2.34 -4 1.68 -4 1 C-2 0 -2 0 0 0 Z " fill="#1A2DB3" transform="translate(1020,299)"/>
<path d="M0 0 C-0.55199646 4.25497268 -1.99961397 6.85397424 -4.5 10.3125 C-5.1290625 11.19550781 -5.758125 12.07851562 -6.40625 12.98828125 C-6.9321875 13.65214844 -7.458125 14.31601563 -8 15 C-8.33 15 -8.66 15 -9 15 C-9 13.35 -9 11.7 -9 10 C-8.01 10 -7.02 10 -6 10 C-5.896875 8.906875 -5.79375 7.81375 -5.6875 6.6875 C-5 3 -5 3 -3.5625 1.0625 C-2 0 -2 0 0 0 Z " fill="#1C29AC" transform="translate(809,211)"/>
<path d="M0 0 C0.66 0 1.32 0 2 0 C2.66 3.63 3.32 7.26 4 11 C4.66 11 5.32 11 6 11 C6 11.66 6 12.32 6 13 C6.66 13.33 7.32 13.66 8 14 C8.625 17.0625 8.625 17.0625 9 20 C3.89821369 15.62704031 1.0847785 10.13119822 0.25 3.5 C0.1675 2.345 0.085 1.19 0 0 Z " fill="#202EA2" transform="translate(101,192)"/>
<path d="M0 0 C16.335 0.495 16.335 0.495 33 1 C33 1.33 33 1.66 33 2 C28.78317252 2.21721322 24.56603409 2.41403398 20.34741211 2.59204102 C18.91258349 2.65545437 17.47798927 2.72442591 16.04370117 2.79907227 C13.98132213 2.90543934 11.91892477 2.99175714 9.85546875 3.07421875 C8.61434326 3.13182373 7.37321777 3.18942871 6.09448242 3.2487793 C3 3 3 3 0 0 Z " fill="#1E2DA1" transform="translate(855,181)"/>
<path d="M0 0 C0.33 0 0.66 0 1 0 C1.03738281 0.90363281 1.07476563 1.80726563 1.11328125 2.73828125 C1.17902344 3.91777344 1.24476563 5.09726563 1.3125 6.3125 C1.37050781 7.48425781 1.42851563 8.65601563 1.48828125 9.86328125 C2.03015774 13.18486001 2.45493601 13.97433682 5 16 C6.1875 18.1875 6.1875 18.1875 7 20 C2.72316502 18.47255894 0.99962349 15.99924698 -1 12 C-1.45334699 7.95092823 -1.85506839 3.71013678 0 0 Z " fill="#1D2B9B" transform="translate(834,174)"/>
<path d="M0 0 C0.33 0 0.66 0 1 0 C1 4.62 1 9.24 1 14 C1.99 13.67 2.98 13.34 4 13 C4 14.65 4 16.3 4 18 C3.34 18 2.68 18 2 18 C1.67 18.99 1.34 19.98 1 21 C2.32 21.33 3.64 21.66 5 22 C3.35 22 1.7 22 0 22 C0 14.74 0 7.48 0 0 Z " fill="#1A2C8F" transform="translate(683,293)"/>
<path d="M0 0 C0.66 0.33 1.32 0.66 2 1 C1.649375 1.763125 1.29875 2.52625 0.9375 3.3125 C-0.34768287 8.36755261 0.32536829 12.8764457 1 18 C0.34 18 -0.32 18 -1 18 C-1.10957031 17.30132812 -1.21914063 16.60265625 -1.33203125 15.8828125 C-1.49058594 14.97273437 -1.64914062 14.06265625 -1.8125 13.125 C-1.96332031 12.22007812 -2.11414063 11.31515625 -2.26953125 10.3828125 C-2.83051301 7.65587522 -2.83051301 7.65587522 -6 6 C-5.195625 5.38125 -4.39125 4.7625 -3.5625 4.125 C-0.96125481 2.25835959 -0.96125481 2.25835959 0 0 Z " fill="#1D2EAD" transform="translate(735,206)"/>
<path d="M0 0 C0.61875 0.804375 1.2375 1.60875 1.875 2.4375 C3.74164041 5.03874519 3.74164041 5.03874519 6 6 C9.6081916 6.03095262 13.20549459 5.93223631 16.8125 5.83984375 C20 6 20 6 22 8 C15.4 8 8.8 8 2 8 C0 4 0 4 0 0 Z " fill="#202BA3" transform="translate(1027,181)"/>
<path d="M0 0 C0.33 0 0.66 0 1 0 C1.33 2.97 1.66 5.94 2 9 C3.65 9.33 5.3 9.66 7 10 C7 10.99 7 11.98 7 13 C0.25 13.125 0.25 13.125 -2 12 C-2 11.34 -2 10.68 -2 10 C-1.34 10 -0.68 10 0 10 C0 6.7 0 3.4 0 0 Z " fill="#1D2EA0" transform="translate(1037,302)"/>
<path d="M0 0 C0 0.33 0 0.66 0 1 C-8.415 1.495 -8.415 1.495 -17 2 C-17.33 2.99 -17.66 3.98 -18 5 C-20.31 5 -22.62 5 -25 5 C-24 3 -24 3 -21.953125 2.1484375 C-14.52256961 0.02235373 -7.70289085 -0.33064873 0 0 Z " fill="#24329D" transform="translate(149,143)"/>
<path d="M0 0 C0.66 0.99 1.32 1.98 2 3 C1.67 3.99 1.34 4.98 1 6 C2.32 6.33 3.64 6.66 5 7 C5 7.66 5 8.32 5 9 C3.41531323 8.54636829 1.83230076 8.08688548 0.25 7.625 C-0.63171875 7.36976562 -1.5134375 7.11453125 -2.421875 6.8515625 C-5 6 -5 6 -9 4 C-6.03 3.34 -3.06 2.68 0 2 C0 1.34 0 0.68 0 0 Z " fill="#1C2DAA" transform="translate(484,119)"/>
<path d="M0 0 C-0.33 0.66 -0.66 1.32 -1 2 C-3.32716 2.37400786 -5.66117862 2.70764733 -8 3 C-8.33 3.33 -8.66 3.66 -9 4 C-11.32961443 4.35840222 -13.66365343 4.68848712 -16 5 C-17.66934283 5.31966139 -19.3373217 5.64731066 -21 6 C-15.31469611 1.23555519 -7.34100891 -0.59521694 0 0 Z " fill="#1E2EA5" transform="translate(655,93)"/>
<path d="M0 0 C0.268125 0.763125 0.53625 1.52625 0.8125 2.3125 C1.94424112 4.87380884 2.91223401 6.19692938 5 8 C4.01 8.33 3.02 8.66 2 9 C0.28125 7.85546875 0.28125 7.85546875 -1.5 6.1875 C-3.63536779 4.21603105 -5.56017292 2.62655139 -8 1 C-5.10765685 0.17361624 -3.11257569 0 0 0 Z " fill="#1829AC" transform="translate(772,99)"/>
<path d="M0 0 C0.99 0.33 1.98 0.66 3 1 C2.67 5.95 2.34 10.9 2 16 C1.34 15.67 0.68 15.34 0 15 C0 10.05 0 5.1 0 0 Z " fill="#1C33BD" transform="translate(813,299)"/>
<path d="M0 0 C1.670625 0.061875 1.670625 0.061875 3.375 0.125 C2.75109375 0.19589844 2.1271875 0.26679688 1.484375 0.33984375 C-0.81729321 0.92504532 -0.81729321 0.92504532 -1.671875 3.19140625 C-1.90390625 4.01511719 -2.1359375 4.83882813 -2.375 5.6875 C-2.61734375 6.51378906 -2.8596875 7.34007812 -3.109375 8.19140625 C-3.27953125 8.82949219 -3.4496875 9.46757812 -3.625 10.125 C-4.285 10.125 -4.945 10.125 -5.625 10.125 C-5.8203125 4.0703125 -5.8203125 4.0703125 -5.625 2.125 C-3.625 0.125 -3.625 0.125 0 0 Z " fill="#1A30B2" transform="translate(994.625,298.875)"/>
<path d="M0 0 C3.19770112 2.78060967 3.85248002 5.05136394 4.16796875 9.21875 C4.17441406 9.9715625 4.18085937 10.724375 4.1875 11.5 C4.20167969 12.2528125 4.21585938 13.005625 4.23046875 13.78125 C3.97417278 16.24864173 3.22845153 17.86356256 2 20 C1.93941406 18.97519531 1.87882813 17.95039063 1.81640625 16.89453125 C1.73194974 15.53384305 1.64730433 14.17316657 1.5625 12.8125 C1.52318359 12.13896484 1.48386719 11.46542969 1.44335938 10.77148438 C1.21072435 7.10300898 0.82792989 3.58305794 0 0 Z " fill="#202E9D" transform="translate(807,191)"/>
<path d="M0 0 C0 3 0 3 -1 5 C-3.64 5 -6.28 5 -9 5 C-9 3.68 -9 2.36 -9 1 C-7.88625 1.020625 -6.7725 1.04125 -5.625 1.0625 C-2.16784079 1.26380718 -2.16784079 1.26380718 0 0 Z " fill="#1B2FA9" transform="translate(742,317)"/>
<path d="M0 0 C4 6 4 6 3.625 8.1875 C3.41875 8.785625 3.2125 9.38375 3 10 C2.34 10 1.68 10 1 10 C1 10.99 1 11.98 1 13 C2.32 13.33 3.64 13.66 5 14 C3.35 14 1.7 14 0 14 C-0.33 11.36 -0.66 8.72 -1 6 C-0.34 6 0.32 6 1 6 C0.67 4.02 0.34 2.04 0 0 Z " fill="#1A2A9B" transform="translate(850,301)"/>
<path d="M0 0 C1.10348268 3.31044803 0.99444068 5.65506316 0 9 C-0.99 9.495 -0.99 9.495 -2 10 C-2.65772428 13.02934491 -2.65772428 13.02934491 -3 16 C-3.66 16 -4.32 16 -5 16 C-4.70887831 9.58076669 -3.54784971 5.37899794 0 0 Z " fill="#1D2DA3" transform="translate(838,108)"/>
<path d="M0 0 C0.66 0.33 1.32 0.66 2 1 C1.34 2.32 0.68 3.64 0 5 C-1.32 5 -2.64 5 -4 5 C-4 7.64 -4 10.28 -4 13 C-4.66 13 -5.32 13 -6 13 C-6.7230444 5.89006342 -6.7230444 5.89006342 -4.6640625 3.35546875 C-3 2 -3 2 0 0 Z " fill="#1D2B9D" transform="translate(1013,82)"/>
<path d="M0 0 C0.99 0.33 1.98 0.66 3 1 C3 1.66 3 2.32 3 3 C4.32 3 5.64 3 7 3 C8.5625 4.375 8.5625 4.375 10 6 C10.99 6.66 11.98 7.32 13 8 C11 9 11 9 8.1875 8.375 C4.54781723 6.80494076 2.55423319 5.00498022 0 2 C0 1.34 0 0.68 0 0 Z " fill="#1E2DAA" transform="translate(719,229)"/>
<path d="M0 0 C0.33 0 0.66 0 1 0 C1.55353075 15.74487472 1.55353075 15.74487472 -2 23 C-3.231394 19.30581799 -2.64432764 16.7943739 -2 13 C-1.34 13 -0.68 13 0 13 C0 8.71 0 4.42 0 0 Z " fill="#25309C" transform="translate(532,147)"/>
<path d="M0 0 C0.66 0.33 1.32 0.66 2 1 C0.37660195 2.70884005 -1.29319053 4.37446717 -3 6 C-3.66 6 -4.32 6 -5 6 C-5.33 6.66 -5.66 7.32 -6 8 C-7.65 7.67 -9.3 7.34 -11 7 C-8.84658594 4.65082102 -6.78332063 3.17556996 -3.9375 1.75 C-3.24527344 1.39421875 -2.55304688 1.0384375 -1.83984375 0.671875 C-1.23269531 0.45015625 -0.62554687 0.2284375 0 0 Z " fill="#1F2DA4" transform="translate(249,112)"/>
<path d="M0 0 C1.32 0 2.64 0 4 0 C4.33 5.61 4.66 11.22 5 17 C3.68 16.67 2.36 16.34 1 16 C1.33 15.34 1.66 14.68 2 14 C2.22950319 11.795636 2.41075933 9.58607827 2.5625 7.375 C2.68818359 5.59222656 2.68818359 5.59222656 2.81640625 3.7734375 C2.87699219 2.85820312 2.93757812 1.94296875 3 1 C2.34 1 1.68 1 1 1 C0.67 2.32 0.34 3.64 0 5 C0 3.35 0 1.7 0 0 Z " fill="#1E2D94" transform="translate(804,298)"/>
<path d="M0 0 C0.99 0 1.98 0 3 0 C2.52412884 6.02770138 -0.19722957 10.76678289 -3 16 C-4.25541557 12.23375329 -3.37061958 10.62811066 -2 7 C-1.34 7 -0.68 7 0 7 C0 4.69 0 2.38 0 0 Z " fill="#1C2BA3" transform="translate(700,160)"/>
<path d="M0 0 C0.7425 0.0825 1.485 0.165 2.25 0.25 C1.59 0.724375 0.93 1.19875 0.25 1.6875 C-3.83862618 5.17986819 -7.24675861 9.18171968 -10.75 13.25 C-11.08 12.26 -11.41 11.27 -11.75 10.25 C-10.14415325 8.09357722 -8.57031004 6.20288164 -6.75 4.25 C-6.09 3.46625 -5.43 2.6825 -4.75 1.875 C-2.75 0.25 -2.75 0.25 0 0 Z " fill="#1E2C9C" transform="translate(646.75,102.75)"/>
<path d="M0 0 C-0.99 1.485 -0.99 1.485 -2 3 C-5.96 2.67 -9.92 2.34 -14 2 C-14 1.34 -14 0.68 -14 0 C-12.2300132 -0.19532961 -10.45895721 -0.38098882 -8.6875 -0.5625 C-7.70136719 -0.66691406 -6.71523438 -0.77132812 -5.69921875 -0.87890625 C-3 -1 -3 -1 0 0 Z " fill="#1D2EA6" transform="translate(771,155)"/>
<path d="M0 0 C1.67542976 0.28604898 3.34385343 0.61781233 5 1 C4.34 2.65 3.68 4.3 3 6 C3.66 6 4.32 6 5 6 C4.67 6.99 4.34 7.98 4 9 C3.01 8.67 2.02 8.34 1 8 C-0.1875 4.4375 -0.1875 4.4375 -1 1 C-0.67 0.67 -0.34 0.34 0 0 Z " fill="#172EB2" transform="translate(505,140)"/>
<path d="M0 0 C0 0.66 0 1.32 0 2 C-5.52760359 4.10575375 -10.06997733 5.37851209 -16 5 C-13.16104152 3.57082045 -10.31555263 2.16143499 -7.4375 0.8125 C-6.29087891 0.26529297 -6.29087891 0.26529297 -5.12109375 -0.29296875 C-3 -1 -3 -1 0 0 Z " fill="#1D2FA5" transform="translate(492,110)"/>
<path d="M0 0 C0.33 0.66 0.66 1.32 1 2 C0.67 2.99 0.34 3.98 0 5 C-0.66 5 -1.32 5 -2 5 C-2.66 6.32 -3.32 7.64 -4 9 C-5.5625 7.1875 -5.5625 7.1875 -7 5 C-6.67 4.01 -6.34 3.02 -6 2 C-4.02 2.495 -4.02 2.495 -2 3 C-1.34 2.01 -0.68 1.02 0 0 Z " fill="#142DB9" transform="translate(844,305)"/>
<path d="M0 0 C1.32 0.33 2.64 0.66 4 1 C4 4.63 4 8.26 4 12 C3.34 12 2.68 12 2 12 C2 9.03 2 6.06 2 3 C1.34 3 0.68 3 0 3 C0 2.01 0 1.02 0 0 Z " fill="#172CBB" transform="translate(763,302)"/>
<path d="M0 0 C0.33 1.98 0.66 3.96 1 6 C0.01 5.67 -0.98 5.34 -2 5 C-2 4.34 -2 3.68 -2 3 C-2.5775 3.350625 -3.155 3.70125 -3.75 4.0625 C-6.39786506 5.16577711 -7.33185326 4.80156509 -10 4 C-8.71086513 3.32845067 -7.41859796 2.66291141 -6.125 2 C-5.40570312 1.62875 -4.68640625 1.2575 -3.9453125 0.875 C-2 0 -2 0 0 0 Z " fill="#1C2EA9" transform="translate(895,226)"/>
<path d="M0 0 C2.97 0.33 5.94 0.66 9 1 C9.28571429 9.57142857 9.28571429 9.57142857 7 13 C6.34 13 5.68 13 5 13 C5.99 9.37 6.98 5.74 8 2 C5.36 1.67 2.72 1.34 0 1 C0 0.67 0 0.34 0 0 Z " fill="#1F2D9E" transform="translate(794,201)"/>
<path d="M0 0 C0.33 0.99 0.66 1.98 1 3 C-0.14453125 5.19140625 -0.14453125 5.19140625 -1.8125 7.5625 C-2.35519531 8.34753906 -2.89789062 9.13257813 -3.45703125 9.94140625 C-5 12 -5 12 -7 14 C-9.125 13.625 -9.125 13.625 -11 13 C-10.113125 12.34 -9.22625 11.68 -8.3125 11 C-4.57976197 7.92337269 -2.34449989 4.18067901 0 0 Z " fill="#1D299E" transform="translate(678,173)"/>
<path d="M0 0 C0 3 0 6 0 9 C-1.65 9.33 -3.3 9.66 -5 10 C-4.49701212 5.59885603 -2.91227269 3.28804981 0 0 Z " fill="#1A2DAC" transform="translate(110,158)"/>
<path d="M0 0 C4.99911924 0.47610659 7.97832683 2.03162219 12 5 C9.04460102 6.47769949 6.94874776 5.56171816 3.84375 4.74609375 C2 4 2 4 0.5 1.875 C0.335 1.25625 0.17 0.6375 0 0 Z " fill="#1D2BA8" transform="translate(795,185)"/>
<path d="M0 0 C0.99 0 1.98 0 3 0 C3.69965443 1.26418246 4.38434763 2.53665402 5.0625 3.8125 C5.63677734 4.87404297 5.63677734 4.87404297 6.22265625 5.95703125 C7 8 7 8 6 11 C4.9944239 9.54550599 3.99569565 8.08627557 3 6.625 C2.443125 5.81289062 1.88625 5.00078125 1.3125 4.1640625 C0 2 0 2 0 0 Z " fill="#1A2CA0" transform="translate(612,173)"/>
<path d="M0 0 C0.33 0.99 0.66 1.98 1 3 C1.66 2.34 2.32 1.68 3 1 C3 0.67 3 0.34 3 0 C4.65 0 6.3 0 8 0 C7.04270084 1.12588014 6.08412105 2.2506715 5.125 3.375 C4.59132813 4.00148437 4.05765625 4.62796875 3.5078125 5.2734375 C2.38567993 6.55836651 1.20628025 7.79371975 0 9 C-1.125 2.25 -1.125 2.25 0 0 Z " fill="#192AAF" transform="translate(849,164)"/>
<path d="M0 0 C0.66 0.33 1.32 0.66 2 1 C2 1.99 2 2.98 2 4 C1.26394531 3.938125 0.52789062 3.87625 -0.23046875 3.8125 C-3.55161709 4.03734502 -4.75986299 4.92327836 -7.3125 7 C-8.00988281 7.556875 -8.70726563 8.11375 -9.42578125 8.6875 C-9.94527344 9.120625 -10.46476562 9.55375 -11 10 C-9.54144353 6.31353859 -7.69770955 4.83856029 -4.375 2.75 C-3.55773437 2.22921875 -2.74046875 1.7084375 -1.8984375 1.171875 C-1.27195312 0.78515625 -0.64546875 0.3984375 0 0 Z " fill="#1F2EA4" transform="translate(122,148)"/>
<path d="M0 0 C1.65 0 3.3 0 5 0 C3.02 0.99 3.02 0.99 1 2 C1.33 2.598125 1.66 3.19625 2 3.8125 C3 6 3 6 3 9 C1.68 9 0.36 9 -1 9 C-0.67 6.03 -0.34 3.06 0 0 Z " fill="#1C2DAA" transform="translate(903,107)"/>
<path d="M0 0 C2 1.5625 2 1.5625 4 4 C4.25 7.75 4.25 7.75 4 11 C3.67 11 3.34 11 3 11 C3 9.02 3 7.04 3 5 C2.34 5 1.68 5 1 5 C1 6.65 1 8.3 1 10 C0 8 -1 6 -2 4 C-1.34 4 -0.68 4 0 4 C0 2.68 0 1.36 0 0 Z " fill="#1F319D" transform="translate(695,301)"/>
<path d="M0 0 C0.52078125 0.30679688 1.0415625 0.61359375 1.578125 0.9296875 C4.61656401 2.27248151 7.46388645 2.6649441 10.75 3.125 C12.50570312 3.37636719 12.50570312 3.37636719 14.296875 3.6328125 C15.63492188 3.81457031 15.63492188 3.81457031 17 4 C17 4.33 17 4.66 17 5 C5.47835991 5.3690205 5.47835991 5.3690205 0 3 C0 2.01 0 1.02 0 0 Z " fill="#1F2E9C" transform="translate(858,151)"/>
<path d="M0 0 C0.66 0.33 1.32 0.66 2 1 C1.54625 1.391875 1.0925 1.78375 0.625 2.1875 C-1.27642919 4.30832487 -2.06204028 6.33042235 -3 9 C-4.32 9 -5.64 9 -7 9 C-5.44499019 5.18315774 -2.96404505 2.80804268 0 0 Z " fill="#1C2EA8" transform="translate(267,74)"/>
<path d="M0 0 C8.86956522 0.73913043 8.86956522 0.73913043 12 4 C12 4.66 12 5.32 12 6 C7.76570244 4.68938409 3.92592596 3.05643741 0 1 C0 0.67 0 0.34 0 0 Z " fill="#202EA1" transform="translate(221,247)"/>
<path d="M0 0 C1 2 1 2 0.80859375 3.94921875 C-0.24713246 6.62678522 -1.49030975 7.34772609 -3.9375 8.8125 C-4.64777344 9.25207031 -5.35804688 9.69164062 -6.08984375 10.14453125 C-7.03537109 10.56798828 -7.03537109 10.56798828 -8 11 C-8.66 10.67 -9.32 10.34 -10 10 C-9.44570313 9.52949219 -8.89140625 9.05898437 -8.3203125 8.57421875 C-7.59585938 7.95160156 -6.87140625 7.32898438 -6.125 6.6875 C-5.40570312 6.07261719 -4.68640625 5.45773438 -3.9453125 4.82421875 C-1.80820669 2.9587676 -1.80820669 2.9587676 0 0 Z " fill="#1B29A4" transform="translate(798,214)"/>
<path d="M0 0 C-0.33 1.32 -0.66 2.64 -1 4 C-3.64 4 -6.28 4 -9 4 C-6.19632015 0.92930303 -4.26207314 0 0 0 Z " fill="#1830B8" transform="translate(954,311)"/>
<path d="M0 0 C0 0.99 0 1.98 0 3 C-2.64 3.33 -5.28 3.66 -8 4 C-8 3.01 -8 2.02 -8 1 C-5.29120665 -0.35439668 -2.99066732 -0.06501451 0 0 Z " fill="#172FB6" transform="translate(692,292)"/>
<path d="M0 0 C3.36329858 0.57987906 4.6723487 1.57924265 7 4 C7.886875 4.515625 8.77375 5.03125 9.6875 5.5625 C10.450625 6.036875 11.21375 6.51125 12 7 C12 7.66 12 8.32 12 9 C7.09198451 7.51272258 3.59508707 4.55364515 0 1 C0 0.67 0 0.34 0 0 Z " fill="#1F2C9B" transform="translate(111,214)"/>
<path d="M0 0 C0.598125 0.309375 1.19625 0.61875 1.8125 0.9375 C5.35883326 2.66000472 7.25673891 3.16170172 11 2 C10.34 3.32 9.68 4.64 9 6 C6.07606119 5.37344168 3.55170871 4.5838192 1 3 C0.67 2.01 0.34 1.02 0 0 Z " fill="#202DA9" transform="translate(164,149)"/>
<path d="M0 0 C-4.455 2.97 -4.455 2.97 -9 6 C-9.66 5.67 -10.32 5.34 -11 5 C-10.01 4.34 -9.02 3.68 -8 3 C-7.67 2.01 -7.34 1.02 -7 0 C-4.05610218 -1.17755913 -3.10046087 -1.03348696 0 0 Z " fill="#1E2E9F" transform="translate(323,140)"/>
<path d="M0 0 C1.7074998 1.28062485 3.37373596 2.61767557 5 4 C5 6 5 6 3.125 8.125 C1 10 1 10 -1 10 C-0.835 9.4225 -0.67 8.845 -0.5 8.25 C0.14462031 5.73335631 0.14462031 5.73335631 0 2 C0 1.34 0 0.68 0 0 Z " fill="#1C2EAF" transform="translate(523,132)"/>
<path d="M0 0 C4.875 4.75 4.875 4.75 6 7 C2.06326356 5.68775452 -0.22719294 4.08089673 -3 1 C-2.01 0.67 -1.02 0.34 0 0 Z " fill="#1D2CAD" transform="translate(270,296)"/>
<path d="M0 0 C2.31 0.33 4.62 0.66 7 1 C3.79663178 3.83374881 1.21912747 4.5205537 -3 5 C-2.01 3.35 -1.02 1.7 0 0 Z " fill="#1C2EAA" transform="translate(502,186)"/>
<path d="M0 0 C0 0.66 0 1.32 0 2 C-0.66 2 -1.32 2 -2 2 C-2 2.66 -2 3.32 -2 4 C-5.3 4.66 -8.6 5.32 -12 6 C-4 0 -4 0 0 0 Z " fill="#212EA2" transform="translate(204,136)"/>
<path d="M0 0 C1.32 1.65 2.64 3.3 4 5 C4.66 4.01 5.32 3.02 6 2 C6.66 2.33 7.32 2.66 8 3 C7.34 4.32 6.68 5.64 6 7 C4.35 6.67 2.7 6.34 1 6 C0.67 4.02 0.34 2.04 0 0 Z " fill="#1F2F9B" transform="translate(836,308)"/>
<path d="M0 0 C0.33 0 0.66 0 1 0 C1 2.31 1 4.62 1 7 C-0.98 7.99 -0.98 7.99 -3 9 C-2.67 8.01 -2.34 7.02 -2 6 C-2.66 5.67 -3.32 5.34 -4 5 C-4 3.68 -4 2.36 -4 1 C-3.34 1 -2.68 1 -2 1 C-2 2.32 -2 3.64 -2 5 C-1.34 5 -0.68 5 0 5 C0 3.35 0 1.7 0 0 Z " fill="#182C8D" transform="translate(956,305)"/>
<path d="M0 0 C1.5 1.125 1.5 1.125 3 3 C3.1875 6.1875 3.1875 6.1875 3 9 C2.01 8.67 1.02 8.34 0 8 C0 5.36 0 2.72 0 0 Z " fill="#142BAD" transform="translate(1034,303)"/>
<path d="M0 0 C0.66 0.33 1.32 0.66 2 1 C1.01 1.33 0.02 1.66 -1 2 C-1 3.65 -1 5.3 -1 7 C-1.99 7.33 -2.98 7.66 -4 8 C-3.67 5.69 -3.34 3.38 -3 1 C-2.01 0.67 -1.02 0.34 0 0 Z " fill="#1C2FB6" transform="translate(734,300)"/>
<path d="M0 0 C0 2 0 2 -1.625 4.125 C-4.60465619 6.47736015 -6.29706315 6.33663062 -10 6 C-2.6 0 -2.6 0 0 0 Z " fill="#1D2EA7" transform="translate(273,228)"/>
<path d="M0 0 C2.97 0.99 5.94 1.98 9 3 C9 3.66 9 4.32 9 5 C6.36 5 3.72 5 1 5 C0.67 3.35 0.34 1.7 0 0 Z " fill="#1F30AD" transform="translate(163,217)"/>
<path d="M0 0 C0.33 0.66 0.66 1.32 1 2 C-1.33333333 4.33333333 -3.66666667 6.66666667 -6 9 C-6.99 8.67 -7.98 8.34 -9 8 C-6.14723863 5.06799526 -3.34920216 2.35684596 0 0 Z " fill="#1C28A1" transform="translate(730,197)"/>
<path d="M0 0 C0.66 0.33 1.32 0.66 2 1 C1.67 1.66 1.34 2.32 1 3 C0.34 3 -0.32 3 -1 3 C-1 3.99 -1 4.98 -1 6 C-3.97 5.505 -3.97 5.505 -7 5 C-2.25 1.125 -2.25 1.125 0 0 Z " fill="#212DB1" transform="translate(190,142)"/>
<path d="M0 0 C1.65 0 3.3 0 5 0 C5 0.99 5 1.98 5 3 C5.66 3 6.32 3 7 3 C6.67 4.32 6.34 5.64 6 7 C4.02 4.69 2.04 2.38 0 0 Z " fill="#202CA6" transform="translate(669,105)"/>
<path d="M0 0 C4.21912747 0.4794463 6.79663178 1.16625119 10 4 C7.03 4 4.06 4 1 4 C0.67 2.68 0.34 1.36 0 0 Z " fill="#192C8D" transform="translate(990,318)"/>
<path d="M0 0 C0.33 0.66 0.66 1.32 1 2 C0.01 3.485 0.01 3.485 -1 5 C-3.625 5.1875 -3.625 5.1875 -6 5 C-6.33 4.34 -6.66 3.68 -7 3 C-4.69 2.01 -2.38 1.02 0 0 Z " fill="#1E2CA8" transform="translate(1017,310)"/>
<path d="M0 0 C0.86625 0.556875 0.86625 0.556875 1.75 1.125 C-0.23 2.445 -2.21 3.765 -4.25 5.125 C-4.91 4.795 -5.57 4.465 -6.25 4.125 C-6.25 3.135 -6.25 2.145 -6.25 1.125 C-2.80384615 -1.09038462 -2.80384615 -1.09038462 0 0 Z " fill="#1D2FA8" transform="translate(683.25,186.875)"/>
<path d="M0 0 C0.33 0 0.66 0 1 0 C1 2.97 1 5.94 1 9 C-0.98 9.99 -0.98 9.99 -3 11 C-2.01 7.37 -1.02 3.74 0 0 Z " fill="#1D2EA0" transform="translate(682,161)"/>
<path d="M0 0 C1.0625 1.8125 1.0625 1.8125 2 4 C1.67 4.99 1.34 5.98 1 7 C-1.97 6.505 -1.97 6.505 -5 6 C-3.35 4.02 -1.7 2.04 0 0 Z " fill="#1A2DAB" transform="translate(776,148)"/>
<path d="M0 0 C4.21912747 0.4794463 6.79663178 1.16625119 10 4 C8.824375 3.9690625 8.824375 3.9690625 7.625 3.9375 C5.01885039 3.81315937 5.01885039 3.81315937 3 5 C2.01 3.35 1.02 1.7 0 0 Z " fill="#212DA7" transform="translate(154,145)"/>
<path d="M0 0 C0 3 0 3 0 3 Z M-5 2 C-2.525 2.495 -2.525 2.495 0 3 C0 4.65 0 6.3 0 8 C-0.99 7.67 -1.98 7.34 -3 7 C-4.1875 4.4375 -4.1875 4.4375 -5 2 Z " fill="#1B30B1" transform="translate(681,110)"/>
<path d="M0 0 C0.66 0.33 1.32 0.66 2 1 C1.20890398 2.27118864 0.41709922 3.54193623 -0.375 4.8125 C-0.81585937 5.52019531 -1.25671875 6.22789063 -1.7109375 6.95703125 C-2.78188476 8.65432039 -3.88676239 10.33014358 -5 12 C-4.10164835 4.21428571 -4.10164835 4.21428571 -2 1 C-1.34 0.67 -0.68 0.34 0 0 Z " fill="#1E2CA0" transform="translate(856,104)"/>
<path d="M0 0 C0.66 0 1.32 0 2 0 C3.35439668 2.70879335 3.06501451 5.00933268 3 8 C2.34 8 1.68 8 1 8 C-0.35439668 5.29120665 -0.06501451 2.99066732 0 0 Z " fill="#172FB9" transform="translate(724,303)"/>
<path d="M0 0 C1.98 0.495 1.98 0.495 4 1 C2.70700306 3.88437779 1.34058637 5.87219421 -1 8 C-0.67 5.36 -0.34 2.72 0 0 Z " fill="#112CAA" transform="translate(842,301)"/>
<path d="M0 0 C0 2.31 0 4.62 0 7 C-1.32 7.33 -2.64 7.66 -4 8 C-3.34 7.67 -2.68 7.34 -2 7 C-2 5.35 -2 3.7 -2 2 C-2.99 1.67 -3.98 1.34 -5 1 C-2 0 -2 0 0 0 Z " fill="#232E95" transform="translate(1053,185)"/>
<path d="M0 0 C0.33 0 0.66 0 1 0 C1 2.64 1 5.28 1 8 C-0.65 8 -2.3 8 -4 8 C-4.33 7.34 -4.66 6.68 -5 6 C-4.01 6 -3.02 6 -2 6 C-1.34 4.02 -0.68 2.04 0 0 Z " fill="#162AB2" transform="translate(799,122)"/>
<path d="M0 0 C0.33 1.32 0.66 2.64 1 4 C-0.65 4.33 -2.3 4.66 -4 5 C-4.33 4.01 -4.66 3.02 -5 2 C-3.35 1.34 -1.7 0.68 0 0 Z " fill="#1A31B5" transform="translate(1000,310)"/>
<path d="M0 0 C1.65 0 3.3 0 5 0 C5 1.32 5 2.64 5 4 C3.35 3.67 1.7 3.34 0 3 C0 2.01 0 1.02 0 0 Z " fill="#143299" transform="translate(1046,311)"/>
<path d="M0 0 C0.33 0 0.66 0 1 0 C1.33 3.63 1.66 7.26 2 11 C1.01 11.495 1.01 11.495 0 12 C-1.53166168 7.91556885 -0.63081652 4.20544343 0 0 Z " fill="#1A31C0" transform="translate(1018,304)"/>
<path d="M0 0 C0.99 0 1.98 0 3 0 C3 1.32 3 2.64 3 4 C2.195625 4.28875 1.39125 4.5775 0.5625 4.875 C-2.1326468 5.73262568 -2.1326468 5.73262568 -3 8 C-3 7.01 -3 6.02 -3 5 C-2.34 4.67 -1.68 4.34 -1 4 C-0.34786708 1.97536745 -0.34786708 1.97536745 0 0 Z " fill="#1830A7" transform="translate(1035,294)"/>
<path d="M0 0 C0.66 0.33 1.32 0.66 2 1 C0.8803014 2.00593243 -0.2459412 3.0045849 -1.375 4 C-2.00148438 4.556875 -2.62796875 5.11375 -3.2734375 5.6875 C-5 7 -5 7 -7 7 C-6.8125 5.125 -6.8125 5.125 -6 3 C-3.5 1.8125 -3.5 1.8125 -1 1 C-0.67 0.67 -0.34 0.34 0 0 Z " fill="#1F2A9C" transform="translate(904,228)"/>
<path d="M0 0 C0.33 0 0.66 0 1 0 C1.28875 1.0725 1.5775 2.145 1.875 3.25 C2.72820109 6.09400364 3.5636503 8.43508983 5 11 C3.68 10.67 2.36 10.34 1 10 C1 8.68 1 7.36 1 6 C0.34 5.67 -0.32 5.34 -1 5 C-0.67 3.35 -0.34 1.7 0 0 Z " fill="#1E2AA3" transform="translate(842,217)"/>
<path d="M0 0 C0.66 0.33 1.32 0.66 2 1 C1.19152271 2.16945792 0.37810888 3.33550461 -0.4375 4.5 C-0.88996094 5.1496875 -1.34242188 5.799375 -1.80859375 6.46875 C-2.20175781 6.9740625 -2.59492187 7.479375 -3 8 C-3.33 8 -3.66 8 -4 8 C-4 6.35 -4 4.7 -4 3 C-3.01 3 -2.02 3 -1 3 C-0.67 2.01 -0.34 1.02 0 0 Z " fill="#1E2C9C" transform="translate(804,218)"/>
<path d="M0 0 C-3.20336822 2.83374881 -5.78087253 3.5205537 -10 4 C-7.16124653 -0.25813021 -4.8137938 -0.13010254 0 0 Z " fill="#1C2CA0" transform="translate(890,157)"/>
<path d="M0 0 C1.13643966 3.40931897 0.86747764 4.00335456 -0.4375 7.1875 C-0.86869141 8.26064453 -0.86869141 8.26064453 -1.30859375 9.35546875 C-1.53675781 9.89816406 -1.76492188 10.44085938 -2 11 C-2.33 11 -2.66 11 -3 11 C-3 9.02 -3 7.04 -3 5 C-2.34 5 -1.68 5 -1 5 C-0.67 3.35 -0.34 1.7 0 0 Z " fill="#202B9F" transform="translate(906,134)"/>
<path d="M0 0 C0.33 0 0.66 0 1 0 C1 1.65 1 3.3 1 5 C1.99 5.33 2.98 5.66 4 6 C1.625 6.625 1.625 6.625 -1 7 C-1.66 6.34 -2.32 5.68 -3 5 C-2.03114628 3.31503702 -1.03013277 1.64821244 0 0 Z " fill="#1830C7" transform="translate(768,93)"/>
<path d="M0 0 C1.32 0 2.64 0 4 0 C4 1.32 4 2.64 4 4 C2.35 3.67 0.7 3.34 -1 3 C-0.67 2.01 -0.34 1.02 0 0 Z " fill="#182F9B" transform="translate(923,311)"/>
<path d="M0 0 C1.98 0.495 1.98 0.495 4 1 C3.34 2.65 2.68 4.3 2 6 C1.67 5.34 1.34 4.68 1 4 C0.34 4 -0.32 4 -1 4 C-0.67 2.68 -0.34 1.36 0 0 Z " fill="#1F319C" transform="translate(771,293)"/>
<path d="M0 0 C1.134375 0.020625 2.26875 0.04125 3.4375 0.0625 C2.261875 0.990625 2.261875 0.990625 1.0625 1.9375 C-1.53087647 3.96108661 -1.53087647 3.96108661 -3.5625 6.0625 C-3.94468767 4.40635343 -4.27645102 2.73792976 -4.5625 1.0625 C-3.5625 0.0625 -3.5625 0.0625 0 0 Z " fill="#1D2AA5" transform="translate(742.5625,196.9375)"/>
<path d="M0 0 C0.66 0.33 1.32 0.66 2 1 C0.35 2.98 -1.3 4.96 -3 7 C-4.125 3.25 -4.125 3.25 -3 1 C-2.01 0.67 -1.02 0.34 0 0 Z " fill="#1E2BA8" transform="translate(327,132)"/>
<path d="M0 0 C0.99 0 1.98 0 3 0 C4 3 4 3 3 6 C2.34 6 1.68 6 1 6 C0.67 4.02 0.34 2.04 0 0 Z " fill="#1C2CB9" transform="translate(787,302)"/>
<path d="M0 0 C0.66 0 1.32 0 2 0 C1.01 2.97 0.02 5.94 -1 9 C-1.66 8.01 -2.32 7.02 -3 6 C-1.65517241 1.65517241 -1.65517241 1.65517241 0 0 Z " fill="#1C2AA1" transform="translate(844,204)"/>
<path d="M0 0 C1 2 2 4 3 6 C1.68 6.33 0.36 6.66 -1 7 C-1.625 4.625 -1.625 4.625 -2 2 C-1.34 1.34 -0.68 0.68 0 0 Z " fill="#1B31CA" transform="translate(851,160)"/>
<path d="M0 0 C2.97 0.495 2.97 0.495 6 1 C4.68 2.32 3.36 3.64 2 5 C1.01 4.67 0.02 4.34 -1 4 C-0.67 2.68 -0.34 1.36 0 0 Z " fill="#1A2CAA" transform="translate(890,152)"/>
<path d="M0 0 C0.33 0 0.66 0 1 0 C1.75 2.6875 1.75 2.6875 2 6 C0.0625 8.875 0.0625 8.875 -2 11 C-1.125 3.375 -1.125 3.375 0 0 Z " fill="#213099" transform="translate(610,124)"/>
<path d="M0 0 C0 0.99 0 1.98 0 3 C-1.32 3.33 -2.64 3.66 -4 4 C-4 3.34 -4 2.68 -4 2 C-5.32 1.67 -6.64 1.34 -8 1 C-5.29120665 -0.35439668 -2.99066732 -0.06501451 0 0 Z " fill="#1A2DB5" transform="translate(638,99)"/>
<path d="" fill="#FFFFFF" transform="translate(0,0)"/>
<path d="" fill="#FFFFFF" transform="translate(0,0)"/>
<path d="" fill="#FFFFFF" transform="translate(0,0)"/>
<path d="" fill="#FFFFFF" transform="translate(0,0)"/>
<path d="" fill="#FFFFFF" transform="translate(0,0)"/>
<path d="" fill="#FFFFFF" transform="translate(0,0)"/>
<path d="" fill="#FFFFFF" transform="translate(0,0)"/>
<path d="" fill="#FFFFFF" transform="translate(0,0)"/>
<path d="" fill="#FFFFFF" transform="translate(0,0)"/>
<path d="" fill="#FFFFFF" transform="translate(0,0)"/>
<path d="" fill="#FFFFFF" transform="translate(0,0)"/>
<path d="" fill="#FFFFFF" transform="translate(0,0)"/>
<path d="" fill="#FFFFFF" transform="translate(0,0)"/>
<path d="" fill="#FFFFFF" transform="translate(0,0)"/>
<path d="" fill="#FFFFFF" transform="translate(0,0)"/>
<path d="" fill="#FFFFFF" transform="translate(0,0)"/>
<path d="" fill="#FFFFFF" transform="translate(0,0)"/>
<path d="" fill="#FFFFFF" transform="translate(0,0)"/>
<path d="" fill="#FFFFFF" transform="translate(0,0)"/>
<path d="" fill="#FFFFFF" transform="translate(0,0)"/>
<path d="" fill="#FFFFFF" transform="translate(0,0)"/>
<path d="" fill="#FFFFFF" transform="translate(0,0)"/>
<path d="" fill="#FFFFFF" transform="translate(0,0)"/>
<path d="" fill="#FFFFFF" transform="translate(0,0)"/>
<path d="" fill="#FFFFFF" transform="translate(0,0)"/>
<path d="" fill="#FFFFFF" transform="translate(0,0)"/>
<path d="" fill="#FFFFFF" transform="translate(0,0)"/>
<path d="" fill="#FFFFFF" transform="translate(0,0)"/>
<path d="" fill="#FFFFFF" transform="translate(0,0)"/>
<path d="" fill="#FFFFFF" transform="translate(0,0)"/>
<path d="" fill="#FFFFFF" transform="translate(0,0)"/>
<path d="" fill="#FFFFFF" transform="translate(0,0)"/>
<path d="" fill="#FFFFFF" transform="translate(0,0)"/>
<path d="" fill="#FFFFFF" transform="translate(0,0)"/>
<path d="" fill="#FFFFFF" transform="translate(0,0)"/>
<path d="" fill="#FFFFFF" transform="translate(0,0)"/>
<path d="" fill="#FFFFFF" transform="translate(0,0)"/>
<path d="" fill="#FFFFFF" transform="translate(0,0)"/>
<path d="" fill="#FFFFFF" transform="translate(0,0)"/>
<path d="" fill="#FFFFFF" transform="translate(0,0)"/>
<path d="" fill="#FFFFFF" transform="translate(0,0)"/>
<path d="" fill="#FFFFFF" transform="translate(0,0)"/>
<path d="" fill="#FFFFFF" transform="translate(0,0)"/>
<path d="" fill="#FFFFFF" transform="translate(0,0)"/>
<path d="" fill="#FFFFFF" transform="translate(0,0)"/>
<path d="" fill="#FFFFFF" transform="translate(0,0)"/>
<path d="" fill="#FFFFFF" transform="translate(0,0)"/>
<path d="" fill="#FFFFFF" transform="translate(0,0)"/>
<path d="" fill="#FFFFFF" transform="translate(0,0)"/>
<path d="" fill="#FFFFFF" transform="translate(0,0)"/>
<path d="" fill="#FFFFFF" transform="translate(0,0)"/>
<path d="" fill="#FFFFFF" transform="translate(0,0)"/>
<path d="" fill="#FFFFFF" transform="translate(0,0)"/>
<path d="" fill="#FFFFFF" transform="translate(0,0)"/>
<path d="" fill="#FFFFFF" transform="translate(0,0)"/>
<path d="" fill="#FFFFFF" transform="translate(0,0)"/>
<path d="" fill="#FFFFFF" transform="translate(0,0)"/>
<path d="" fill="#FFFFFF" transform="translate(0,0)"/>
<path d="" fill="#FFFFFF" transform="translate(0,0)"/>
<path d="" fill="#FFFFFF" transform="translate(0,0)"/>
<path d="" fill="#FFFFFF" transform="translate(0,0)"/>
<path d="" fill="#FFFFFF" transform="translate(0,0)"/>
<path d="" fill="#FFFFFF" transform="translate(0,0)"/>
<path d="" fill="#FFFFFF" transform="translate(0,0)"/>
<path d="" fill="#FFFFFF" transform="translate(0,0)"/>
<path d="" fill="#FFFFFF" transform="translate(0,0)"/>
<path d="" fill="#FFFFFF" transform="translate(0,0)"/>
</svg>
