<svg xmlns="http://www.w3.org/2000/svg" version="1.1" xmlns:xlink="http://www.w3.org/1999/xlink" xmlns:svgjs="http://svgjs.dev/svgjs" width="1500" height="1500" viewBox="0 0 1500 1500"><rect width="1500" height="1500" fill="#ffffff"></rect><g transform="matrix(0.6666666666666666,0,0,0.6666666666666666,249.39393939393938,584.7591314620529)"><svg viewBox="0 0 396 130" data-background-color="#ffffff" preserveAspectRatio="xMidYMid meet" height="492" width="1500" xmlns="http://www.w3.org/2000/svg" xmlns:xlink="http://www.w3.org/1999/xlink"><g id="tight-bounds" transform="matrix(1,0,0,1,0.2400000000000091,0.49180765223513845)"><svg viewBox="0 0 395.52 129.01638469552972" height="129.01638469552972" width="395.52"><g><svg viewBox="0 0 631.2463260992857 205.90897766399996" height="129.01638469552972" width="395.52"><g transform="matrix(1,0,0,1,235.72632609928579,15.379094705410381)"><svg viewBox="0 0 395.52 175.1507882531792" height="175.1507882531792" width="395.52"><g id="textblocktransform"><svg viewBox="0 0 395.52 175.1507882531792" height="175.1507882531792" width="395.52" id="textblock"><g><svg viewBox="0 0 395.52 126.30402258292165" height="126.30402258292165" width="395.52"><g transform="matrix(1,0,0,1,0,0)"><svg width="395.52" viewBox="4.5 -34.15 141.69 45.25" height="126.30402258292165" data-palette-color="#1b30c5"><path d="M14.9 0L4.5 0 4.5-33.1 13.95-33.1Q17.6-33.1 20.43-32.27 23.25-31.45 24.88-29.75 26.5-28.05 26.5-25.3L26.5-25.3Q26.5-22.55 24.55-20.5 22.6-18.45 19.2-17.45L19.2-17.45Q23.95-16.55 26.18-14.28 28.4-12 28.4-9.3L28.4-9.3Q28.4-6.75 27.08-4.95 25.75-3.15 23.65-2.08 21.55-1 19.23-0.5 16.9 0 14.9 0L14.9 0ZM9.35-30.3L9.35-17.95 12.95-17.95Q16.25-17.95 18.1-18.98 19.95-20 20.7-21.65 21.45-23.3 21.45-25.05L21.45-25.05Q21.45-26.95 20.15-28.68 18.85-30.4 15.85-31.3L15.85-31.3Q14.45-31.3 12.55-31 10.65-30.7 9.35-30.3L9.35-30.3ZM13.9-1.75L13.9-1.75Q16.2-1.75 18.25-2.53 20.3-3.3 21.58-4.9 22.85-6.5 22.85-8.9L22.85-8.9Q22.85-11 21.55-12.73 20.25-14.45 18.05-15.48 15.85-16.5 13.15-16.5L13.15-16.5 9.35-16.5 9.35-2.25Q10.05-2.05 11.38-1.9 12.7-1.75 13.9-1.75ZM40.15 0L35.95 0 35.95-34.15 40.15-34.15 40.15 0ZM55.35 0.6L55.35 0.6Q52.55 0.6 50.25-0.7 47.95-2 46.6-4.53 45.25-7.05 45.25-10.65L45.25-10.65Q45.25-14.2 46.37-16.6 47.5-19 49.32-20.45 51.15-21.9 53.25-22.55 55.35-23.2 57.3-23.2L57.3-23.2Q60.15-23.2 62.45-21.9 64.75-20.6 66.1-18.1 67.45-15.6 67.45-11.95L67.45-11.95Q67.45-8.4 66.3-6 65.15-3.6 63.32-2.15 61.5-0.7 59.4-0.05 57.3 0.6 55.35 0.6ZM56.3-1.1L56.3-1.1Q58.05-1.1 59.3-2.05 60.55-3 61.32-4.53 62.1-6.05 62.47-7.8 62.85-9.55 62.85-11.2L62.85-11.2Q62.85-13.95 62.17-16.23 61.5-18.5 59.92-19.9 58.35-21.3 55.6-21.3L55.6-21.3Q52.6-20.15 51.2-17.3 49.8-14.45 49.8-11.2L49.8-11.2Q49.8-8.55 50.45-6.23 51.1-3.9 52.52-2.5 53.95-1.1 56.3-1.1ZM78.84 11.1L78.84 11.1Q76.44 11.1 74.47 10.5 72.49 9.9 71.34 8.68 70.19 7.45 70.19 5.6L70.19 5.6Q70.19 4.15 71.07 2.63 71.94 1.1 74.29 0.05L74.29 0.05Q73.19-0.35 72.59-1.15 71.99-1.95 71.99-3.2L71.99-3.2Q71.99-4.45 73.02-5.73 74.04-7 75.59-8.2L75.59-8.2Q73.94-9.05 72.89-10.7 71.84-12.35 71.84-14.75L71.84-14.75Q71.84-17.1 72.69-18.7 73.54-20.3 74.89-21.3 76.24-22.3 77.82-22.75 79.39-23.2 80.84-23.2L80.84-23.2Q82.14-23.2 83.37-22.8 84.59-22.4 85.54-21.85L85.54-21.85 89.94-23.1 90.94-20.95 87.84-19.4Q88.29-18.6 88.54-17.68 88.79-16.75 88.79-15.6L88.79-15.6Q88.79-13.25 87.92-11.65 87.04-10.05 85.64-9.1 84.24-8.15 82.64-7.73 81.04-7.3 79.59-7.3L79.59-7.3Q79.24-7.3 78.89-7.33 78.54-7.35 78.19-7.4L78.19-7.4Q77.74-7.25 77.09-6.83 76.44-6.4 75.97-5.8 75.49-5.2 75.49-4.55L75.49-4.55Q75.49-3.45 77.07-3.15 78.64-2.85 81.54-2.85L81.54-2.85Q85.99-2.85 88.67-2.02 91.34-1.2 91.34 1.45L91.34 1.45Q91.34 3.8 89.72 6.03 88.09 8.25 85.29 9.68 82.49 11.1 78.84 11.1ZM80.24-8.85L80.24-8.85Q84.84-8.85 84.84-15.1L84.84-15.1Q84.84-16.85 84.22-18.3 83.59-19.75 82.54-20.65 81.49-21.55 80.24-21.55L80.24-21.55Q77.99-21.55 76.82-19.78 75.64-18 75.64-15.1L75.64-15.1Q75.64-12.5 76.99-10.68 78.34-8.85 80.24-8.85ZM79.64 8.8L79.64 8.8Q82.64 8.8 84.87 7.65 87.09 6.5 88.34 4.88 89.59 3.25 89.59 1.9L89.59 1.9Q88.59 1.5 87.14 1.25 85.69 1 84.22 0.93 82.74 0.85 81.59 0.85L81.59 0.85Q79.99 0.85 78.62 0.8 77.24 0.75 76.14 0.55L76.14 0.55Q75.44 1.15 74.69 2.3 73.94 3.45 73.94 4.75L73.94 4.75Q73.94 6.45 75.27 7.63 76.59 8.8 79.64 8.8ZM103.34 11.1L103.34 11.1Q100.94 11.1 98.97 10.5 96.99 9.9 95.84 8.68 94.69 7.45 94.69 5.6L94.69 5.6Q94.69 4.15 95.57 2.63 96.44 1.1 98.79 0.05L98.79 0.05Q97.69-0.35 97.09-1.15 96.49-1.95 96.49-3.2L96.49-3.2Q96.49-4.45 97.52-5.73 98.54-7 100.09-8.2L100.09-8.2Q98.44-9.05 97.39-10.7 96.34-12.35 96.34-14.75L96.34-14.75Q96.34-17.1 97.19-18.7 98.04-20.3 99.39-21.3 100.74-22.3 102.32-22.75 103.89-23.2 105.34-23.2L105.34-23.2Q106.64-23.2 107.87-22.8 109.09-22.4 110.04-21.85L110.04-21.85 114.44-23.1 115.44-20.95 112.34-19.4Q112.79-18.6 113.04-17.68 113.29-16.75 113.29-15.6L113.29-15.6Q113.29-13.25 112.42-11.65 111.54-10.05 110.14-9.1 108.74-8.15 107.14-7.73 105.54-7.3 104.09-7.3L104.09-7.3Q103.74-7.3 103.39-7.33 103.04-7.35 102.69-7.4L102.69-7.4Q102.24-7.25 101.59-6.83 100.94-6.4 100.47-5.8 99.99-5.2 99.99-4.55L99.99-4.55Q99.99-3.45 101.57-3.15 103.14-2.85 106.04-2.85L106.04-2.85Q110.49-2.85 113.17-2.02 115.84-1.2 115.84 1.45L115.84 1.45Q115.84 3.8 114.22 6.03 112.59 8.25 109.79 9.68 106.99 11.1 103.34 11.1ZM104.74-8.85L104.74-8.85Q109.34-8.85 109.34-15.1L109.34-15.1Q109.34-16.85 108.72-18.3 108.09-19.75 107.04-20.65 105.99-21.55 104.74-21.55L104.74-21.55Q102.49-21.55 101.32-19.78 100.14-18 100.14-15.1L100.14-15.1Q100.14-12.5 101.49-10.68 102.84-8.85 104.74-8.85ZM104.14 8.8L104.14 8.8Q107.14 8.8 109.37 7.65 111.59 6.5 112.84 4.88 114.09 3.25 114.09 1.9L114.09 1.9Q113.09 1.5 111.64 1.25 110.19 1 108.72 0.93 107.24 0.85 106.09 0.85L106.09 0.85Q104.49 0.85 103.12 0.8 101.74 0.75 100.64 0.55L100.64 0.55Q99.94 1.15 99.19 2.3 98.44 3.45 98.44 4.75L98.44 4.75Q98.44 6.45 99.77 7.63 101.09 8.8 104.14 8.8ZM126.99 0L122.39 0 122.39-33.1 126.99-33.1 126.99 0ZM140.89 0.6L140.89 0.6Q138.84 0.6 137.44-0.6 136.04-1.8 136.04-4.65L136.04-4.65 136.04-20.8 131.99-21.6 131.99-22.6 136.04-22.6 136.04-24.4 140.24-27.45 140.24-22.6 146.19-22.6 146.19-20.8 140.24-20.8 140.24-4.4Q140.24-3 140.81-2.2 141.39-1.4 142.99-1.4L142.99-1.4Q143.69-1.4 144.54-1.63 145.39-1.85 146.19-2.15L146.19-2.15 146.19-0.75Q145.09-0.25 143.71 0.18 142.34 0.6 140.89 0.6Z" opacity="1" transform="matrix(1,0,0,1,0,0)" fill="#1b30c5" class="wordmark-text-0" data-fill-palette-color="primary" id="text-0"></path></svg></g></svg></g><g transform="matrix(1,0,0,1,163.310208,156.12137101820747)"><svg viewBox="0 0 232.209792 19.029417234971753" height="19.029417234971753" width="232.209792"><g transform="matrix(1,0,0,1,0,0)"><svg width="232.209792" viewBox="4.5 -37 592.99 48.6" height="19.029417234971753" data-palette-color="#1b30c5"><path d="M14.6 0.4L14.6 0.4Q11.55 0.4 8.83 0.25 6.1 0.1 4.5-0.1L4.5-0.1 4.5-34.9Q6.25-35.1 8.85-35.25 11.45-35.4 14.8-35.4L14.8-35.4Q21.2-35.4 24.65-32.98 28.1-30.55 28.1-26.4L28.1-26.4Q28.1-23.65 26.63-21.73 25.15-19.8 22.35-18.55L22.35-18.55Q25.75-17.35 27.5-15.23 29.25-13.1 29.25-10L29.25-10Q29.25-5.25 25.5-2.43 21.75 0.4 14.6 0.4ZM9.25-31.3L9.25-19.9 14.75-19.9Q18.7-19.9 21.03-21.55 23.35-23.2 23.35-25.8L23.35-25.8Q23.35-28.6 21.05-30.08 18.75-31.55 14.75-31.55L14.75-31.55Q13.1-31.55 11.75-31.48 10.4-31.4 9.25-31.3L9.25-31.3ZM14.95-3.55L14.95-3.55Q19.4-3.55 21.9-5.15 24.4-6.75 24.4-9.8L24.4-9.8Q24.4-12.8 21.95-14.5 19.5-16.2 14.95-16.2L14.95-16.2 9.25-16.2 9.25-3.85Q11.9-3.55 14.95-3.55ZM43.4 0.6L43.4 0.6Q41.1 0.6 39.25-0.28 37.4-1.15 36.32-3.1 35.25-5.05 35.25-8.15L35.25-8.15 35.25-37 39.75-37 39.75-8.6Q39.75-5.9 40.87-4.6 42-3.3 44-3.3L44-3.3Q44.95-3.3 45.87-3.53 46.8-3.75 47.45-4.05L47.45-4.05 48.55-0.4Q47.65 0 46.32 0.3 45 0.6 43.4 0.6ZM63 0.6L63 0.6Q59.3 0.6 56.34-1.13 53.4-2.85 51.72-5.93 50.05-9 50.05-13L50.05-13Q50.05-17.2 51.75-20.25 53.45-23.3 56.4-24.95 59.34-26.6 63-26.6L63-26.6Q66.65-26.6 69.57-24.95 72.5-23.3 74.22-20.28 75.95-17.25 75.95-13.1L75.95-13.1Q75.95-8.95 74.25-5.88 72.55-2.8 69.62-1.1 66.7 0.6 63 0.6ZM63-3.4L63-3.4Q66.95-3.4 69.15-6.08 71.34-8.75 71.34-13L71.34-13Q71.34-15.6 70.25-17.78 69.15-19.95 67.27-21.28 65.4-22.6 63-22.6L63-22.6Q59.05-22.6 56.84-20 54.65-17.4 54.65-13.1L54.65-13.1Q54.65-10.5 55.75-8.28 56.84-6.05 58.72-4.73 60.59-3.4 63-3.4ZM91.49 11.6L91.49 11.6Q89.19 11.6 87.02 11.05 84.84 10.5 83.14 9.4L83.14 9.4 84.79 5.5Q85.99 6.45 87.59 7.08 89.19 7.7 91.49 7.7L91.49 7.7Q95.04 7.7 97.07 5.83 99.09 3.95 99.09-0.15L99.09-0.15 99.09-3.35Q98.09-2.15 96.22-1.07 94.34 0 91.74 0L91.74 0Q88.79 0 86.14-1.53 83.49-3.05 81.84-6 80.19-8.95 80.19-13.1L80.19-13.1Q80.19-17 81.82-20.05 83.44-23.1 86.19-24.85 88.94-26.6 92.24-26.6L92.24-26.6Q94.44-26.6 96.24-25.85 98.04-25.1 99.34-24L99.34-24 99.34-26 103.44-26 103.44-0.6Q103.44 3.7 101.94 6.4 100.44 9.1 97.77 10.35 95.09 11.6 91.49 11.6ZM92.74-4L92.74-4Q94.74-4 96.34-4.9 97.94-5.8 98.94-7L98.94-7 98.94-20.6Q97.84-21.4 96.29-22.05 94.74-22.7 92.69-22.7L92.69-22.7Q90.64-22.7 88.84-21.6 87.04-20.5 85.92-18.43 84.79-16.35 84.79-13.35L84.79-13.35Q84.79-10.5 85.92-8.4 87.04-6.3 88.84-5.15 90.64-4 92.74-4ZM139.59 0L134.84 0 134.84-13.3 122.69-33.05 126.69-35.45 137.39-17.7 147.89-35.25 151.64-33.05 139.59-13.3 139.59 0ZM163.84 0.6L163.84 0.6Q160.14 0.6 157.19-1.13 154.24-2.85 152.56-5.93 150.89-9 150.89-13L150.89-13Q150.89-17.2 152.59-20.25 154.29-23.3 157.24-24.95 160.19-26.6 163.84-26.6L163.84-26.6Q167.49-26.6 170.41-24.95 173.34-23.3 175.06-20.28 176.79-17.25 176.79-13.1L176.79-13.1Q176.79-8.95 175.09-5.88 173.39-2.8 170.46-1.1 167.54 0.6 163.84 0.6ZM163.84-3.4L163.84-3.4Q167.79-3.4 169.99-6.08 172.19-8.75 172.19-13L172.19-13Q172.19-15.6 171.09-17.78 169.99-19.95 168.11-21.28 166.24-22.6 163.84-22.6L163.84-22.6Q159.89-22.6 157.69-20 155.49-17.4 155.49-13.1L155.49-13.1Q155.49-10.5 156.59-8.28 157.69-6.05 159.56-4.73 161.44-3.4 163.84-3.4ZM191.28 0.6L191.28 0.6Q189.03 0.6 187.03-0.35 185.03-1.3 183.78-3.43 182.53-5.55 182.53-9.1L182.53-9.1 182.53-26 187.03-26 187.03-9.7Q187.03-6.65 188.33-5.03 189.63-3.4 192.13-3.4L192.13-3.4Q194.18-3.4 196.11-4.23 198.03-5.05 199.53-6.45L199.53-6.45 199.53-26 204.03-26 204.03-6.75Q204.03-4.6 204.96-3.93 205.88-3.25 206.98-3.25L206.98-3.25 206.03 0.25Q201.38 0.25 200.28-3.45L200.28-3.45Q198.53-1.65 196.23-0.53 193.93 0.6 191.28 0.6ZM217.48 0L212.98 0 212.98-26 217.33-26 217.33-20.35Q217.98-22 219.08-23.43 220.18-24.85 221.83-25.73 223.48-26.6 225.68-26.6L225.68-26.6Q226.43-26.6 227.18-26.53 227.93-26.45 228.43-26.3L228.43-26.3 227.08-21.65Q226.13-22.05 224.83-22.05L224.83-22.05Q222.98-22.05 221.31-21 219.63-19.95 218.56-17.75 217.48-15.55 217.48-12.15L217.48-12.15 217.48 0ZM260.07 0L254.18 0 244.68-33.85 249.38-35.35 257.28-5.05 264.73-31.35 270.68-31.35 278.07-5.05 285.93-35.2 290.33-33.85 280.88 0 274.98 0 267.57-26.3 260.07 0ZM304.52 0.6L304.52 0.6Q300.82 0.6 297.87-1.13 294.92-2.85 293.25-5.93 291.57-9 291.57-13L291.57-13Q291.57-17.2 293.27-20.25 294.97-23.3 297.92-24.95 300.87-26.6 304.52-26.6L304.52-26.6Q308.17-26.6 311.1-24.95 314.02-23.3 315.75-20.28 317.47-17.25 317.47-13.1L317.47-13.1Q317.47-8.95 315.77-5.88 314.07-2.8 311.15-1.1 308.22 0.6 304.52 0.6ZM304.52-3.4L304.52-3.4Q308.47-3.4 310.67-6.08 312.87-8.75 312.87-13L312.87-13Q312.87-15.6 311.77-17.78 310.67-19.95 308.8-21.28 306.92-22.6 304.52-22.6L304.52-22.6Q300.57-22.6 298.37-20 296.17-17.4 296.17-13.1L296.17-13.1Q296.17-10.5 297.27-8.28 298.37-6.05 300.25-4.73 302.12-3.4 304.52-3.4ZM327.97 0L323.47 0 323.47-26 327.82-26 327.82-20.35Q328.47-22 329.57-23.43 330.67-24.85 332.32-25.73 333.97-26.6 336.17-26.6L336.17-26.6Q336.92-26.6 337.67-26.53 338.42-26.45 338.92-26.3L338.92-26.3 337.57-21.65Q336.62-22.05 335.32-22.05L335.32-22.05Q333.47-22.05 331.8-21 330.12-19.95 329.05-17.75 327.97-15.55 327.97-12.15L327.97-12.15 327.97 0ZM351.32 0.6L351.32 0.6Q349.02 0.6 347.17-0.28 345.32-1.15 344.24-3.1 343.17-5.05 343.17-8.15L343.17-8.15 343.17-37 347.67-37 347.67-8.6Q347.67-5.9 348.79-4.6 349.92-3.3 351.92-3.3L351.92-3.3Q352.87-3.3 353.79-3.53 354.72-3.75 355.37-4.05L355.37-4.05 356.47-0.4Q355.57 0 354.24 0.3 352.92 0.6 351.32 0.6ZM369.82 0.6L369.82 0.6Q366.62 0.6 363.97-1.05 361.32-2.7 359.77-5.73 358.22-8.75 358.22-12.85L358.22-12.85Q358.22-16.8 359.79-19.9 361.37-23 363.99-24.8 366.62-26.6 369.77-26.6L369.77-26.6Q372.37-26.6 374.24-25.55 376.12-24.5 377.17-23.4L377.17-23.4 377.17-37 381.67-37 381.67-6.3Q381.67-4.4 382.59-3.83 383.52-3.25 384.62-3.25L384.62-3.25 383.67 0.25Q378.92 0.25 377.87-3.55L377.87-3.55Q376.77-2 374.79-0.7 372.82 0.6 369.82 0.6ZM370.82-3.4L370.82-3.4Q372.67-3.4 374.34-4.28 376.02-5.15 377.17-6.55L377.17-6.55 377.17-19.45Q376.22-20.65 374.52-21.68 372.82-22.7 370.77-22.7L370.77-22.7Q368.37-22.7 366.57-21.4 364.77-20.1 363.79-17.93 362.82-15.75 362.82-13L362.82-13Q362.82-10.25 363.87-8.08 364.92-5.9 366.74-4.65 368.57-3.4 370.82-3.4ZM394.11 0.6L394.11 0.6Q392.76 0.6 391.76-0.4 390.76-1.4 390.76-2.75L390.76-2.75Q390.76-4.3 391.66-5.2 392.56-6.1 394.11-6.1L394.11-6.1Q395.41-6.1 396.44-5.1 397.46-4.1 397.46-2.75L397.46-2.75Q397.46-1.25 396.51-0.33 395.56 0.6 394.11 0.6ZM431.21 0.4L431.21 0.4Q428.16 0.4 425.43 0.25 422.71 0.1 421.11-0.1L421.11-0.1 421.11-34.9Q422.86-35.1 425.46-35.25 428.06-35.4 431.41-35.4L431.41-35.4Q437.81-35.4 441.26-32.98 444.71-30.55 444.71-26.4L444.71-26.4Q444.71-23.65 443.23-21.73 441.76-19.8 438.96-18.55L438.96-18.55Q442.36-17.35 444.11-15.23 445.86-13.1 445.86-10L445.86-10Q445.86-5.25 442.11-2.43 438.36 0.4 431.21 0.4ZM425.86-31.3L425.86-19.9 431.36-19.9Q435.31-19.9 437.63-21.55 439.96-23.2 439.96-25.8L439.96-25.8Q439.96-28.6 437.66-30.08 435.36-31.55 431.36-31.55L431.36-31.55Q429.71-31.55 428.36-31.48 427.01-31.4 425.86-31.3L425.86-31.3ZM431.56-3.55L431.56-3.55Q436.01-3.55 438.51-5.15 441.01-6.75 441.01-9.8L441.01-9.8Q441.01-12.8 438.56-14.5 436.11-16.2 431.56-16.2L431.56-16.2 425.86-16.2 425.86-3.85Q428.51-3.55 431.56-3.55ZM460 0.6L460 0.6Q457.71 0.6 455.86-0.28 454-1.15 452.93-3.1 451.86-5.05 451.86-8.15L451.86-8.15 451.86-37 456.36-37 456.36-8.6Q456.36-5.9 457.48-4.6 458.61-3.3 460.61-3.3L460.61-3.3Q461.56-3.3 462.48-3.53 463.41-3.75 464.06-4.05L464.06-4.05 465.16-0.4Q464.25 0 462.93 0.3 461.61 0.6 460 0.6ZM479.6 0.6L479.6 0.6Q475.9 0.6 472.95-1.13 470-2.85 468.33-5.93 466.65-9 466.65-13L466.65-13Q466.65-17.2 468.35-20.25 470.05-23.3 473-24.95 475.95-26.6 479.6-26.6L479.6-26.6Q483.25-26.6 486.18-24.95 489.1-23.3 490.83-20.28 492.55-17.25 492.55-13.1L492.55-13.1Q492.55-8.95 490.85-5.88 489.15-2.8 486.23-1.1 483.3 0.6 479.6 0.6ZM479.6-3.4L479.6-3.4Q483.55-3.4 485.75-6.08 487.95-8.75 487.95-13L487.95-13Q487.95-15.6 486.85-17.78 485.75-19.95 483.88-21.28 482-22.6 479.6-22.6L479.6-22.6Q475.65-22.6 473.45-20 471.25-17.4 471.25-13.1L471.25-13.1Q471.25-10.5 472.35-8.28 473.45-6.05 475.33-4.73 477.2-3.4 479.6-3.4ZM508.1 11.6L508.1 11.6Q505.8 11.6 503.63 11.05 501.45 10.5 499.75 9.4L499.75 9.4 501.4 5.5Q502.6 6.45 504.2 7.08 505.8 7.7 508.1 7.7L508.1 7.7Q511.65 7.7 513.67 5.83 515.7 3.95 515.7-0.15L515.7-0.15 515.7-3.35Q514.7-2.15 512.83-1.07 510.95 0 508.35 0L508.35 0Q505.4 0 502.75-1.53 500.1-3.05 498.45-6 496.8-8.95 496.8-13.1L496.8-13.1Q496.8-17 498.43-20.05 500.05-23.1 502.8-24.85 505.55-26.6 508.85-26.6L508.85-26.6Q511.05-26.6 512.85-25.85 514.65-25.1 515.95-24L515.95-24 515.95-26 520.05-26 520.05-0.6Q520.05 3.7 518.55 6.4 517.05 9.1 514.38 10.35 511.7 11.6 508.1 11.6ZM509.35-4L509.35-4Q511.35-4 512.95-4.9 514.55-5.8 515.55-7L515.55-7 515.55-20.6Q514.45-21.4 512.9-22.05 511.35-22.7 509.3-22.7L509.3-22.7Q507.25-22.7 505.45-21.6 503.65-20.5 502.53-18.43 501.4-16.35 501.4-13.35L501.4-13.35Q501.4-10.5 502.53-8.4 503.65-6.3 505.45-5.15 507.25-4 509.35-4ZM537.35 11.6L537.35 11.6Q535.05 11.6 532.87 11.05 530.7 10.5 529 9.4L529 9.4 530.65 5.5Q531.85 6.45 533.45 7.08 535.05 7.7 537.35 7.7L537.35 7.7Q540.9 7.7 542.92 5.83 544.95 3.95 544.95-0.15L544.95-0.15 544.95-3.35Q543.95-2.15 542.07-1.07 540.2 0 537.6 0L537.6 0Q534.65 0 532-1.53 529.35-3.05 527.7-6 526.05-8.95 526.05-13.1L526.05-13.1Q526.05-17 527.67-20.05 529.3-23.1 532.05-24.85 534.8-26.6 538.1-26.6L538.1-26.6Q540.3-26.6 542.1-25.85 543.9-25.1 545.2-24L545.2-24 545.2-26 549.3-26 549.3-0.6Q549.3 3.7 547.8 6.4 546.3 9.1 543.62 10.35 540.95 11.6 537.35 11.6ZM538.6-4L538.6-4Q540.6-4 542.2-4.9 543.8-5.8 544.8-7L544.8-7 544.8-20.6Q543.7-21.4 542.15-22.05 540.6-22.7 538.55-22.7L538.55-22.7Q536.5-22.7 534.7-21.6 532.9-20.5 531.77-18.43 530.65-16.35 530.65-13.35L530.65-13.35Q530.65-10.5 531.77-8.4 532.9-6.3 534.7-5.15 536.5-4 538.6-4ZM562.29 0L557.54 0 557.54-35 562.29-35 562.29 0ZM579.89 0.6L579.89 0.6Q576.14 0.6 573.97-1.88 571.79-4.35 571.79-8.95L571.79-8.95 571.79-21.15 567.29-21.15 567.29-25.05 571.89-25.05 572.84-33.25 576.29-33.25 576.29-25.05 583.49-25.05 583.49-21.15 576.29-21.15 576.29-8.6Q576.29-5.7 577.52-4.55 578.74-3.4 580.44-3.4L580.44-3.4Q581.69-3.4 582.82-3.8 583.94-4.2 584.89-4.75L584.89-4.75 586.14-1.15Q585.14-0.55 583.44 0.03 581.74 0.6 579.89 0.6ZM594.14 0.6L594.14 0.6Q592.79 0.6 591.79-0.4 590.79-1.4 590.79-2.75L590.79-2.75Q590.79-4.3 591.69-5.2 592.59-6.1 594.14-6.1L594.14-6.1Q595.44-6.1 596.46-5.1 597.49-4.1 597.49-2.75L597.49-2.75Q597.49-1.25 596.54-0.33 595.59 0.6 594.14 0.6Z" opacity="1" transform="matrix(1,0,0,1,0,0)" fill="#1b30c5" class="slogan-text-1" data-fill-palette-color="secondary" id="text-1"></path></svg></g></svg></g></svg></g></svg></g><g><svg viewBox="0 0 205.90897766399996 205.90897766399996" height="205.90897766399996" width="205.90897766399996"><g><svg></svg></g><g id="icon-0"><svg viewBox="0 0 205.90897766399996 205.90897766399996" height="205.90897766399996" width="205.90897766399996"><g><rect width="187.22464450559997" height="187.22464450559997" x="9.342166579199997" y="9.342166579199997" fill="#ffffff" data-fill-palette-color="accent"></rect><rect width="187.22464450559997" height="187.22464450559997" x="18.684333158399994" y="0" fill="#ffffff" opacity="0.5" data-fill-palette-color="accent"></rect></g><g transform="matrix(1,0,0,1,28.421068109738783,26.691904511999994)"><svg viewBox="0 0 149.0668414445224 152.52516863999998" height="152.52516863999998" width="149.0668414445224"><g><svg xmlns="http://www.w3.org/2000/svg" xmlns:xlink="http://www.w3.org/1999/xlink" version="1.1" x="0" y="0" viewBox="11.983 10.932 76.035 77.79899999999999" enable-background="new 0 0 100 100" xml:space="preserve" height="152.52516863999998" width="149.0668414445224" class="icon-dxe-0" data-fill-palette-color="quaternary" id="dxe-0"><path d="M74.369 61.436A13.58 13.58 0 0 0 65.199 64.995L39.106 51.69C39.21 51.011 39.28 50.321 39.28 49.612 39.28 49.213 39.254 48.82 39.22 48.429L65.561 35A13.6 13.6 0 0 0 74.37 38.23C81.907 38.23 88.018 32.12 88.018 24.582S81.907 10.932 74.37 10.932C66.831 10.932 60.72 17.043 60.72 24.582 60.72 24.998 60.746 25.408 60.783 25.814L34.476 39.227A13.58 13.58 0 0 0 25.633 35.963C18.095 35.963 11.983 42.074 11.983 49.612S18.095 63.261 25.633 63.261C28.673 63.261 31.47 62.255 33.738 60.575L60.756 74.35C60.743 74.594 60.719 74.835 60.719 75.082 60.719 82.621 66.83 88.731 74.369 88.731 81.906 88.731 88.017 82.621 88.017 75.082 88.018 67.546 81.906 61.436 74.369 61.436" fill="#1b30c5" data-fill-palette-color="quaternary"></path></svg></g></svg></g></svg></g></svg></g></svg></g><defs></defs></svg><rect width="395.52" height="129.01638469552972" fill="none" stroke="none" visibility="hidden"></rect></g></svg></g></svg>